<svg xmlns="http://www.w3.org/2000/svg" xmlns:xlink="http://www.w3.org/1999/xlink" width="32" height="32" viewBox="0 0 32 32" fill="none">
<rect  x="0" y="0" width="32" height="32" rx="6"    fill="#465DCD" >
</rect>
<path d="M9.72343 9.25625C9.95 9.25313 10.1297 9.06875 10.1281 8.84219C10.1297 8.61719 9.95 8.43125 9.72343 8.42969C9.49687 8.43281 9.31562 8.61719 9.31875 8.84219C9.31875 9.07031 9.5 9.25625 9.72343 9.25625ZM21.7469 20.1844C21.925 20.4172 22.0312 20.7109 22.0312 21.0281C22.0312 21.7891 21.4281 22.4047 20.6828 22.4047C20.2766 22.4047 19.8938 22.2203 19.6406 21.9031L16.6156 21.9031L14.5375 18.1359L10.7078 18.1359L8.49219 14.1172L10.7078 10.0984L12.9703 10.0984C13.1906 9.53438 13.7328 9.16094 14.3375 9.15625C15.1531 9.15625 15.8141 9.83126 15.8141 10.6625C15.8141 10.9359 15.7422 11.1937 15.6172 11.4141L16.9672 13.8641L20.7984 13.8641L23.0141 17.8828L21.7469 20.1844ZM20.5031 19.6641L21.4844 17.8844L20.0188 15.2266L17.3937 15.2266L15.9297 17.8844L17.3953 20.5422L19.4203 20.5422C19.5922 20.0719 20.0078 19.7344 20.5031 19.6641ZM13.0828 11.4578L11.4875 11.4578L10.0219 14.1156L11.4875 16.7734L14.1125 16.7734L15.5781 14.1156L14.5 12.1609C13.9313 12.2234 13.3781 11.9484 13.0828 11.4578ZM9.72343 9.59687C9.31406 9.59687 8.98438 9.25937 8.98438 8.84219C8.98438 8.42656 9.31406 8.08906 9.72187 8.08906C10.1313 8.08906 10.4609 8.42656 10.4609 8.84219C10.4609 9.25781 10.1313 9.59531 9.72343 9.59687ZM8.98438 21.4C8.44063 21.4 8 20.9484 8 20.3938C8 19.8391 8.44063 19.3891 8.98438 19.3891C9.52812 19.3891 9.96875 19.8391 9.96875 20.3938C9.96875 20.95 9.52812 21.3984 8.98438 21.4ZM15.6516 23.6593C15.1188 23.6593 14.6875 23.2188 14.6875 22.6766C14.6875 22.1328 15.1188 21.6922 15.6516 21.6922C16.1844 21.6922 16.6156 22.1328 16.6156 22.6766C16.6156 23.2203 16.1844 23.6593 15.6516 23.6593ZM16.9484 10.35L16.2828 10.35C16.2828 9.42813 15.55 8.68125 14.6469 8.68125L14.6469 8C15.9172 8 16.9484 9.05156 16.9484 10.35ZM22.7688 12.6094C22.0891 12.6094 21.5375 12.0469 21.5375 11.3547C21.5375 10.6609 22.0891 10.0984 22.7688 10.0984C23.4484 10.0984 24 10.6609 24 11.3547C24 12.0469 23.4484 12.6094 22.7688 12.6094ZM21.1688 24L21.1688 23.3203C22.1391 23.3203 22.9266 22.5172 22.9266 21.525L23.5938 21.525C23.5953 22.8922 22.5094 24 21.1688 24ZM14.3375 11.4906C14.7859 11.4906 15.1484 11.1203 15.1484 10.6641C15.1484 10.2078 14.7859 9.83751 14.3375 9.83751C13.8906 9.83751 13.5266 10.2078 13.5266 10.6641C13.5281 11.1203 13.8906 11.4906 14.3375 11.4906ZM20.6813 21.725C20.8641 21.7234 21.0391 21.6484 21.1672 21.5187C21.2953 21.3875 21.3656 21.2125 21.3641 21.0297C21.3656 20.8469 21.2953 20.6703 21.1672 20.5406C21.0391 20.4094 20.8641 20.3359 20.6813 20.3344C20.4984 20.3359 20.3234 20.4109 20.1953 20.5406C20.0672 20.6719 19.9969 20.8469 19.9984 21.0297C20 21.4125 20.3047 21.725 20.6813 21.725Z"   fill="#FFFFFF" >
</path>
</svg>
