<svg xmlns="http://www.w3.org/2000/svg" xmlns:xlink="http://www.w3.org/1999/xlink" width="32" height="32" viewBox="0 0 32 32" fill="none">
<rect  x="0" y="0" width="32" height="32" rx="6"    fill="#0E4DF0" >
</rect>
<path d="M14.235 16.4849L13.7817 16.1531L15.2879 13.9437L14.1972 11.4974L14.7051 11.2456L15.9335 13.9933L14.235 16.4849Z"   fill="#D9D9D9" >
</path>
<path d="M15.678 18.2688L18.6416 18.5322L18.5837 19.1115L15.6205 18.8476L15.678 18.2688Z"   fill="#D9D9D9" >
</path>
<path d="M11.6468 16.3673C11.6359 16.3629 11.6254 16.3578 11.6151 16.3522C11.6047 16.3465 11.5947 16.3403 11.5851 16.3335C11.5754 16.3268 11.5662 16.3195 11.5573 16.3117C11.5484 16.3039 11.5399 16.2956 11.5319 16.2868L10.3944 13.6664C10.3931 13.6636 10.3918 13.6609 10.3905 13.6581C10.3893 13.6553 10.3881 13.6525 10.3869 13.6496C10.3858 13.6468 10.3846 13.6439 10.3836 13.641C10.3825 13.6382 10.3815 13.6353 10.3805 13.6324C10.3795 13.6294 10.3786 13.6265 10.3777 13.6235C10.3769 13.6206 10.376 13.6176 10.3752 13.6147C10.3745 13.6117 10.3737 13.6087 10.373 13.6057C10.3723 13.6027 10.3717 13.5996 10.3711 13.5966C10.3705 13.5936 10.37 13.5905 10.3695 13.5875C10.369 13.5844 10.3686 13.5814 10.3682 13.5783C10.3678 13.5752 10.3674 13.5721 10.3671 13.5691C10.3668 13.566 10.3666 13.5629 10.3664 13.5598C10.3662 13.5567 10.3661 13.5536 10.366 13.5505C10.3659 13.5474 10.3658 13.5443 10.3658 13.5412C10.3658 13.5381 10.3659 13.535 10.366 13.5319C10.3661 13.5288 10.3663 13.5257 10.3665 13.5226C10.3667 13.5195 10.3669 13.5164 10.3672 13.5133C10.3675 13.5102 10.3679 13.5071 10.3683 13.504C10.3687 13.5009 10.3691 13.4978 10.3696 13.4948C10.3701 13.4917 10.3707 13.4886 10.3713 13.4856C10.3719 13.4825 10.3725 13.4795 10.3732 13.4765C10.3739 13.4734 10.3747 13.4704 10.3755 13.4674C10.3763 13.4644 10.3771 13.4614 10.378 13.4584C10.3789 13.4554 10.3798 13.4525 10.3808 13.4495C10.3818 13.4466 10.3828 13.4436 10.3839 13.4407C10.385 13.4378 10.3861 13.4349 10.3873 13.432C10.3884 13.4292 10.3896 13.4263 10.3909 13.4235C10.3922 13.4206 10.3935 13.4178 10.3948 13.415C10.3962 13.4122 10.3976 13.4094 10.399 13.4067C10.4004 13.404 10.4019 13.4012 10.4034 13.3985C10.405 13.3958 10.4065 13.3932 10.4081 13.3905C10.4098 13.3879 10.4114 13.3853 10.4131 13.3827L12.0147 11.0281C12.0163 11.0254 12.018 11.0227 12.0196 11.0201C12.0213 11.0174 12.0231 11.0148 12.0248 11.0122C12.0266 11.0096 12.0284 11.007 12.0302 11.0045C12.0321 11.002 12.034 10.9995 12.0359 10.997C12.0378 10.9945 12.0398 10.9921 12.0418 10.9897C12.0438 10.9873 12.0458 10.9849 12.0479 10.9826C12.05 10.9802 12.0521 10.978 12.0543 10.9757C12.0564 10.9734 12.0586 10.9712 12.0608 10.969C12.063 10.9668 12.0653 10.9647 12.0676 10.9626C12.0699 10.9604 12.0722 10.9584 12.0745 10.9563C12.0769 10.9543 12.0793 10.9523 12.0817 10.9504C12.0841 10.9484 12.0865 10.9465 12.089 10.9446C12.0915 10.9428 12.094 10.9409 12.0965 10.9392C12.099 10.9374 12.1016 10.9356 12.1042 10.9339C12.1068 10.9322 12.1094 10.9306 12.112 10.929C12.1147 10.9274 12.1173 10.9258 12.12 10.9243C12.1227 10.9228 12.1254 10.9213 12.1281 10.9199C12.1308 10.9185 12.1336 10.9171 12.1364 10.9158C12.1391 10.9144 12.1419 10.9131 12.1447 10.9119C12.1475 10.9107 12.1504 10.9095 12.1532 10.9083C12.1561 10.9072 12.1589 10.9061 12.1618 10.9051C12.1647 10.904 12.1676 10.9031 12.1705 10.9021C12.1734 10.9012 12.1763 10.9003 12.1793 10.8995C12.1822 10.8986 12.1852 10.8978 12.1881 10.8971C12.1911 10.8963 12.194 10.8957 12.197 10.895C12.2 10.8944 12.203 10.8938 12.206 10.8933C12.209 10.8927 12.212 10.8923 12.215 10.8918C12.218 10.8914 12.221 10.891 12.224 10.8907C12.2271 10.8904 12.2301 10.8901 12.2331 10.8899C12.2361 10.8897 12.2392 10.8895 12.2422 10.8894C12.2452 10.8893 12.2483 10.8892 12.2513 10.8892C12.2543 10.8892 12.2574 10.8892 12.2604 10.8893L15.0292 11.1406C15.0322 11.1409 15.0352 11.1412 15.0382 11.1416C15.0412 11.142 15.0442 11.1424 15.0472 11.1428C15.0502 11.1433 15.0532 11.1438 15.0562 11.1444C15.0592 11.1449 15.0621 11.1456 15.0651 11.1462C15.0681 11.1469 15.071 11.1476 15.0739 11.1484C15.0769 11.1491 15.0798 11.1499 15.0827 11.1508C15.0856 11.1516 15.0885 11.1525 15.0914 11.1535C15.0943 11.1544 15.0971 11.1554 15.1 11.1565C15.1028 11.1575 15.1056 11.1586 15.1085 11.1597C15.1113 11.1609 15.1141 11.1621 15.1169 11.1633C15.1196 11.1645 15.1224 11.1658 15.1251 11.1671C15.1279 11.1684 15.1306 11.1698 15.1333 11.1712C15.136 11.1726 15.1386 11.1741 15.1413 11.1756C15.1439 11.177 15.1466 11.1786 15.1492 11.1802C15.1518 11.1818 15.1543 11.1834 15.1569 11.185C15.1594 11.1867 15.162 11.1884 15.1645 11.1902C15.167 11.1919 15.1694 11.1937 15.1719 11.1955C15.1743 11.1974 15.1767 11.1992 15.1791 11.2012C15.1815 11.2031 15.1838 11.205 15.1862 11.207C15.1885 11.209 15.1908 11.211 15.193 11.2131C15.1953 11.2152 15.1975 11.2173 15.1997 11.2194C15.2019 11.2215 15.2041 11.2237 15.2062 11.2259C15.2084 11.2281 15.2105 11.2304 15.2125 11.2327C15.2146 11.2349 15.2166 11.2373 15.2186 11.2396C15.2206 11.2419 15.2225 11.2443 15.2245 11.2467C15.2264 11.2492 15.2283 11.2516 15.2301 11.2541C15.2319 11.2565 15.2337 11.2591 15.2355 11.2616C15.2373 11.2641 15.239 11.2667 15.2407 11.2693C15.2424 11.2719 15.244 11.2745 15.2456 11.2771C15.2472 11.2798 15.2488 11.2825 15.2503 11.2852C15.2519 11.2879 15.2534 11.2906 15.2548 11.2934C15.2562 11.2961 15.2576 11.2989 15.259 11.3017L16.4155 13.8931C16.4168 13.8959 16.418 13.8988 16.4191 13.9018C16.4203 13.9047 16.4214 13.9076 16.4224 13.9106C16.4235 13.9135 16.4245 13.9165 16.4255 13.9195C16.4264 13.9225 16.4274 13.9255 16.4282 13.9286C16.4291 13.9316 16.4299 13.9346 16.4307 13.9377C16.4315 13.9408 16.4322 13.9438 16.4329 13.9469C16.4335 13.95 16.4342 13.9531 16.4347 13.9562C16.4353 13.9593 16.4358 13.9625 16.4363 13.9656C16.4368 13.9687 16.4372 13.9719 16.4376 13.975C16.438 13.9782 16.4383 13.9813 16.4386 13.9845C16.4388 13.9876 16.4391 13.9908 16.4392 13.994C16.4394 13.9971 16.4396 14.0003 16.4396 14.0035C16.4397 14.0067 16.4397 14.0098 16.4397 14.013C16.4397 14.0162 16.4396 14.0194 16.4395 14.0225C16.4394 14.0257 16.4392 14.0289 16.439 14.0321C16.4387 14.0352 16.4385 14.0384 16.4382 14.0416C16.4378 14.0448 16.4375 14.0479 16.437 14.0511C16.4366 14.0542 16.4361 14.0574 16.4356 14.0605C16.4351 14.0636 16.4345 14.0668 16.4339 14.0699C16.4333 14.073 16.4326 14.0761 16.4319 14.0792C16.4312 14.0824 16.4304 14.0854 16.4296 14.0885C16.4288 14.0916 16.4279 14.0947 16.427 14.0977C16.4261 14.1008 16.4251 14.1038 16.4241 14.1068C16.4231 14.1098 16.4221 14.1128 16.421 14.1158C16.4199 14.1188 16.4187 14.1218 16.4175 14.1247C16.4163 14.1277 16.4151 14.1306 16.4138 14.1335C16.4125 14.1364 16.4112 14.1393 16.4098 14.1422C16.4084 14.145 16.407 14.1479 16.4056 14.1507C16.4041 14.1535 16.4026 14.1563 16.401 14.1591C16.3995 14.1618 16.3979 14.1646 16.3962 14.1673C16.3946 14.17 16.3929 14.1727 16.3912 14.1753C16.3895 14.178 16.3877 14.1806 16.3859 14.1832L14.7889 16.541C14.787 16.5435 14.7851 16.546 14.7831 16.5485C14.7812 16.551 14.7792 16.5534 14.7772 16.5558C14.7752 16.5582 14.7731 16.5606 14.771 16.5629C14.7689 16.5653 14.7668 16.5676 14.7647 16.5699C14.7625 16.5721 14.7603 16.5744 14.7581 16.5766C14.7559 16.5788 14.7536 16.581 14.7514 16.5831C14.7491 16.5852 14.7468 16.5873 14.7444 16.5894C14.7421 16.5915 14.7397 16.5935 14.7373 16.5955C14.7349 16.5975 14.7325 16.5994 14.7301 16.6014C14.7276 16.6033 14.7251 16.6052 14.7226 16.607C14.7201 16.6088 14.7176 16.6107 14.715 16.6124C14.7125 16.6142 14.7099 16.6159 14.7073 16.6176C14.7047 16.6193 14.702 16.6209 14.6994 16.6225C14.6967 16.6241 14.694 16.6257 14.6914 16.6272C14.6887 16.6287 14.6859 16.6302 14.6832 16.6316C14.6805 16.633 14.6777 16.6344 14.6749 16.6358C14.6722 16.6371 14.6694 16.6384 14.6666 16.6397C14.6637 16.6409 14.6609 16.6422 14.6581 16.6433C14.6552 16.6445 14.6523 16.6456 14.6495 16.6467C14.6466 16.6478 14.6437 16.6488 14.6408 16.6498C14.6379 16.6508 14.635 16.6518 14.632 16.6527C14.6291 16.6536 14.6262 16.6544 14.6232 16.6552C14.6202 16.656 14.6173 16.6568 14.6143 16.6575C14.6113 16.6582 14.6083 16.6589 14.6053 16.6595C14.6023 16.6601 14.5993 16.6607 14.5963 16.6612C14.5933 16.6618 14.5903 16.6622 14.5873 16.6627C14.5843 16.6631 14.5812 16.6635 14.5782 16.6638C14.5752 16.6642 14.5721 16.6645 14.5691 16.6647C14.5661 16.6649 14.563 16.6651 14.56 16.6653C14.5569 16.6654 14.5539 16.6655 14.5509 16.6656C14.5478 16.6656 14.5448 16.6656 14.5417 16.6656C14.5387 16.6655 14.5357 16.6655 14.5326 16.6653L11.7617 16.4479C11.7508 16.4436 11.7401 16.4387 11.7297 16.4332C11.7193 16.4276 11.7093 16.4215 11.6996 16.4147C11.6899 16.4079 11.6807 16.4006 11.6718 16.3926C11.663 16.3847 11.6547 16.3763 11.6468 16.3673ZM10.965 13.5645L11.9885 15.8577L14.4247 16.0738L15.834 14.0014L14.8105 11.7082L12.3743 11.4921L10.965 13.5645Z"   fill="#FFFFFF" >
</path>
<path d="M15.6027 19.2454C15.5974 19.2419 15.5922 19.2382 15.5872 19.2342C15.5821 19.2303 15.5772 19.2262 15.5725 19.2219C15.5677 19.2175 15.5631 19.2131 15.5586 19.2084C15.5542 19.2038 15.55 19.199 15.5459 19.194C15.5417 19.189 15.5378 19.1839 15.534 19.1787C15.5302 19.1734 15.5267 19.168 15.5233 19.1625C15.5199 19.1569 15.5168 19.1513 15.5138 19.1455C15.5108 19.1397 15.508 19.1338 15.5054 19.1278L14.3489 16.5365C14.3476 16.5336 14.3464 16.5306 14.3453 16.5277C14.3441 16.5248 14.343 16.5218 14.3419 16.5188C14.3408 16.5158 14.3398 16.5128 14.3388 16.5098C14.3378 16.5068 14.3369 16.5038 14.336 16.5007C14.3351 16.4977 14.3343 16.4946 14.3335 16.4916C14.3327 16.4885 14.332 16.4854 14.3313 16.4823C14.3306 16.4792 14.3299 16.4761 14.3293 16.4729C14.3287 16.4698 14.3282 16.4667 14.3276 16.4635C14.3271 16.4604 14.3267 16.4572 14.3263 16.4541C14.3259 16.4509 14.3255 16.4477 14.3252 16.4446C14.3249 16.4414 14.3246 16.4382 14.3244 16.435C14.3242 16.4318 14.324 16.4286 14.3239 16.4254C14.3238 16.4222 14.3237 16.419 14.3237 16.4158C14.3237 16.4126 14.3237 16.4094 14.3238 16.4062C14.3238 16.403 14.324 16.3998 14.3241 16.3966C14.3243 16.3934 14.3245 16.3903 14.3248 16.3871C14.3251 16.3839 14.3254 16.3807 14.3258 16.3775C14.3261 16.3743 14.3266 16.3711 14.327 16.368C14.3275 16.3648 14.328 16.3616 14.3286 16.3585C14.3291 16.3553 14.3298 16.3522 14.3304 16.349C14.3311 16.3459 14.3318 16.3428 14.3325 16.3397C14.3333 16.3365 14.3341 16.3334 14.3349 16.3303C14.3358 16.3272 14.3367 16.3242 14.3376 16.3211C14.3386 16.318 14.3395 16.315 14.3406 16.312C14.3416 16.3089 14.3427 16.3059 14.3438 16.3029C14.3449 16.2999 14.3461 16.2969 14.3473 16.294C14.3485 16.291 14.3498 16.2881 14.3511 16.2851C14.3524 16.2822 14.3538 16.2793 14.3552 16.2764C14.3566 16.2736 14.358 16.2707 14.3595 16.2679C14.3609 16.265 14.3625 16.2622 14.364 16.2595C14.3656 16.2567 14.3672 16.2539 14.3689 16.2512C14.3705 16.2484 14.3722 16.2457 14.3739 16.2431L15.9724 13.8933C15.9741 13.8907 15.976 13.8881 15.9779 13.8856C15.9797 13.883 15.9816 13.8805 15.9836 13.878C15.9855 13.8755 15.9875 13.873 15.9895 13.8706C15.9916 13.8681 15.9936 13.8657 15.9957 13.8634C15.9978 13.861 16 13.8587 16.0021 13.8564C16.0043 13.8541 16.0065 13.8519 16.0088 13.8496C16.011 13.8474 16.0133 13.8452 16.0156 13.8431C16.0179 13.841 16.0202 13.8389 16.0226 13.8368C16.025 13.8347 16.0274 13.8327 16.0298 13.8308C16.0323 13.8288 16.0347 13.8268 16.0372 13.8249C16.0397 13.823 16.0422 13.8212 16.0448 13.8194C16.0473 13.8176 16.0499 13.8158 16.0525 13.8141C16.0551 13.8124 16.0578 13.8107 16.0604 13.809C16.0631 13.8074 16.0658 13.8058 16.0685 13.8043C16.0712 13.8027 16.0739 13.8012 16.0767 13.7998C16.0794 13.7983 16.0822 13.7969 16.085 13.7956C16.0878 13.7942 16.0906 13.7929 16.0935 13.7916C16.0963 13.7904 16.0992 13.7892 16.102 13.788C16.1049 13.7868 16.1078 13.7857 16.1107 13.7847C16.1136 13.7836 16.1165 13.7826 16.1195 13.7816C16.1224 13.7806 16.1254 13.7797 16.1283 13.7789C16.1313 13.778 16.1343 13.7772 16.1373 13.7764C16.1402 13.7757 16.1432 13.7749 16.1463 13.7743C16.1493 13.7736 16.1523 13.773 16.1553 13.7725C16.1583 13.7719 16.1614 13.7714 16.1644 13.7709C16.1675 13.7705 16.1705 13.7701 16.1736 13.7697C16.1766 13.7694 16.1797 13.7691 16.1827 13.7688C16.1858 13.7686 16.1888 13.7684 16.1919 13.7682C16.195 13.7681 16.198 13.768 16.2011 13.768C16.2042 13.7679 16.2072 13.7679 16.2103 13.768C16.2134 13.7681 16.2164 13.7682 16.2195 13.7684C16.2225 13.7685 16.2256 13.7688 16.2286 13.769L18.9836 14.0107C18.9882 14.0111 18.9927 14.0115 18.9972 14.0121C19.0017 14.0127 19.0062 14.0134 19.0107 14.0142C19.0152 14.0151 19.0197 14.016 19.0241 14.017C19.0286 14.0181 19.033 14.0193 19.0373 14.0205C19.0417 14.0218 19.0461 14.0232 19.0503 14.0247C19.0546 14.0262 19.0589 14.0278 19.0632 14.0295C19.0674 14.0312 19.0716 14.0331 19.0757 14.035C19.0798 14.0369 19.0839 14.0389 19.0879 14.0411C19.092 14.0432 19.096 14.0455 19.0999 14.0478C19.1038 14.0502 19.1077 14.0526 19.1115 14.0552C19.1153 14.0577 19.1191 14.0604 19.1227 14.0631C19.1264 14.0658 19.13 14.0686 19.1336 14.0716C19.1371 14.0745 19.1406 14.0775 19.144 14.0806C19.1474 14.0837 19.1507 14.0869 19.1539 14.0902C19.1572 14.0935 19.1604 14.0968 19.1635 14.1003C19.1666 14.1037 19.1695 14.1072 19.1724 14.1108C19.1753 14.1144 19.1782 14.1181 19.181 14.1219C19.1837 14.1256 19.1863 14.1294 19.1889 14.1333C19.1914 14.1371 19.1939 14.1411 19.1963 14.1451C19.1987 14.1492 19.201 14.1532 19.2031 14.1574C19.2053 14.1615 19.2073 14.1656 19.2093 14.1699C19.2113 14.1741 19.2131 14.1784 19.2149 14.1828C19.2167 14.1871 19.2184 14.1915 19.22 14.1959C19.2215 14.2004 19.223 14.2048 19.2244 14.2094C19.2257 14.2138 19.227 14.2184 19.2281 14.2229C19.2292 14.2275 19.2303 14.2321 19.2312 14.2368C19.2321 14.2414 19.2329 14.2461 19.2336 14.2507C19.2343 14.2554 19.2349 14.2601 19.2354 14.2648C19.2359 14.2695 19.2362 14.2743 19.2365 14.279C19.2367 14.2837 19.2368 14.2884 19.2369 14.2932C19.237 14.2979 19.2369 14.3027 19.2367 14.3074C19.2365 14.3122 19.2362 14.3169 19.2358 14.3217C19.2354 14.3264 19.235 14.3312 19.2344 14.3359C19.2338 14.3407 19.2332 14.3454 19.2324 14.3501C19.2316 14.3548 19.2307 14.3595 19.2297 14.3642C19.2287 14.3689 19.2275 14.3735 19.2262 14.3781C19.225 14.3828 19.2237 14.3874 19.2222 14.3919C19.2207 14.3964 19.2191 14.4009 19.2175 14.4054C19.2158 14.4099 19.214 14.4143 19.2121 14.4187C19.2102 14.4231 19.2082 14.4274 19.2061 14.4317C19.204 14.436 19.2018 14.4402 19.1995 14.4444C19.1972 14.4486 19.1948 14.4527 19.1923 14.4567C19.1898 14.4608 19.1872 14.4648 19.1845 14.4687C19.1818 14.4726 19.179 14.4764 19.1761 14.4802C19.1733 14.484 19.1703 14.4877 19.1672 14.4913C19.1642 14.4949 19.1611 14.4985 19.1579 14.502C19.1547 14.5054 19.1514 14.5088 19.1479 14.5121C19.1446 14.5154 19.1411 14.5186 19.1376 14.5217C19.134 14.5248 19.1304 14.5278 19.1268 14.5308C19.1231 14.5337 19.1194 14.5365 19.1156 14.5393C19.1117 14.542 19.1079 14.5446 19.1039 14.5471C19.1 14.5497 19.096 14.5521 19.092 14.5545C19.0879 14.5568 19.0838 14.559 19.0796 14.5611C19.0755 14.5633 19.0713 14.5653 19.0671 14.5672C19.0628 14.569 19.0585 14.5708 19.0542 14.5725C19.0499 14.5742 19.0456 14.5758 19.0411 14.5772C19.0367 14.5787 19.0323 14.58 19.0279 14.5812C19.0234 14.5824 19.0189 14.5835 19.0144 14.5845C19.0099 14.5855 19.0054 14.5864 19.0008 14.5872C18.9963 14.5879 18.9918 14.5886 18.9872 14.5891C18.9826 14.5896 18.978 14.59 18.9734 14.5902C18.9688 14.5905 18.9642 14.5906 18.9597 14.5907C18.955 14.5907 18.9504 14.5906 18.9459 14.5904C18.9413 14.5902 18.9367 14.5899 18.9322 14.5895L16.3366 14.3606L14.924 16.4378L15.9476 18.731L18.5431 18.9598C18.5477 18.9601 18.5523 18.9605 18.5569 18.961C18.5614 18.9615 18.566 18.9621 18.5704 18.9629C18.575 18.9636 18.5795 18.9645 18.584 18.9654C18.5885 18.9664 18.5929 18.9675 18.5973 18.9687C18.6017 18.9699 18.6061 18.9713 18.6105 18.9727C18.6148 18.9741 18.6191 18.9757 18.6234 18.9774C18.6277 18.979 18.6319 18.9808 18.6361 18.9827C18.6403 18.9846 18.6444 18.9866 18.6485 18.9887C18.6526 18.9908 18.6566 18.993 18.6605 18.9953C18.6645 18.9977 18.6684 19.0001 18.6723 19.0027C18.6761 19.0052 18.68 19.0078 18.6836 19.0105C18.6873 19.0132 18.691 19.0161 18.6946 19.019C18.6982 19.0219 18.7017 19.0249 18.7051 19.028C18.7085 19.0311 18.7119 19.0343 18.7152 19.0377C18.7185 19.0409 18.7216 19.0443 18.7247 19.0478C18.7278 19.0512 18.7309 19.0547 18.7338 19.0584C18.7367 19.062 18.7396 19.0657 18.7423 19.0695C18.7451 19.0733 18.7478 19.0771 18.7503 19.081C18.7529 19.0849 18.7553 19.0889 18.7577 19.0929C18.7601 19.097 18.7624 19.1011 18.7645 19.1052C18.7667 19.1094 18.7687 19.1136 18.7707 19.1179C18.7727 19.1222 18.7745 19.1265 18.7763 19.1309C18.778 19.1353 18.7797 19.1397 18.7812 19.1442C18.7828 19.1486 18.7842 19.1531 18.7855 19.1577C18.7868 19.1622 18.788 19.1668 18.7891 19.1714C18.7902 19.176 18.7912 19.1807 18.792 19.1853C18.7929 19.19 18.7937 19.1947 18.7943 19.1994C18.7949 19.2042 18.7955 19.2089 18.7959 19.2136C18.7963 19.2183 18.7966 19.2231 18.7967 19.2279C18.7969 19.2326 18.797 19.2374 18.797 19.2422C18.7969 19.247 18.7967 19.2518 18.7965 19.2565C18.7962 19.2613 18.7958 19.266 18.7953 19.2708C18.7947 19.2755 18.7941 19.2803 18.7933 19.2849C18.7925 19.2896 18.7916 19.2943 18.7906 19.2989C18.7897 19.3036 18.7885 19.3082 18.7873 19.3128C18.7862 19.3174 18.7848 19.322 18.7834 19.3265C18.782 19.331 18.7805 19.3356 18.7788 19.34C18.7772 19.3445 18.7755 19.3489 18.7737 19.3533C18.7719 19.3577 18.7699 19.362 18.7679 19.3663C18.7659 19.3706 18.7638 19.3748 18.7616 19.379C18.7593 19.3832 18.757 19.3873 18.7546 19.3914C18.7522 19.3955 18.7497 19.3995 18.7472 19.4035C18.7446 19.4074 18.7419 19.4113 18.7391 19.4151C18.7363 19.4189 18.7334 19.4227 18.7305 19.4264C18.7276 19.4301 18.7246 19.4337 18.7215 19.4372C18.7184 19.4408 18.7152 19.4442 18.712 19.4476C18.7087 19.451 18.7053 19.4543 18.7019 19.4575C18.6985 19.4607 18.695 19.4639 18.6915 19.4669C18.6879 19.47 18.6843 19.4729 18.6806 19.4758C18.677 19.4787 18.6732 19.4815 18.6694 19.4841C18.6656 19.4868 18.6618 19.4894 18.6578 19.4919C18.6539 19.4944 18.6499 19.4968 18.6459 19.4991C18.6419 19.5014 18.6378 19.5036 18.6336 19.5057C18.6295 19.5078 18.6253 19.5098 18.6211 19.5117C18.6169 19.5135 18.6126 19.5153 18.6083 19.517C18.604 19.5186 18.5997 19.5202 18.5953 19.5217C18.591 19.5232 18.5866 19.5245 18.5821 19.5258C18.5777 19.527 18.5733 19.5282 18.5688 19.5292C18.5643 19.5302 18.5598 19.5311 18.5553 19.5319C18.5508 19.5327 18.5463 19.5333 18.5418 19.534C18.5372 19.5345 18.5327 19.535 18.5281 19.5353C18.5236 19.5357 18.519 19.5359 18.5144 19.536C18.5098 19.5361 18.5053 19.5362 18.5008 19.5361C18.4962 19.5359 18.4916 19.5357 18.4871 19.5354L15.7321 19.2937C15.7205 19.2924 15.7091 19.2904 15.6978 19.2878C15.6865 19.2851 15.6754 19.2817 15.6645 19.2776C15.6536 19.2735 15.643 19.2688 15.6327 19.2634C15.6223 19.258 15.6123 19.2521 15.6027 19.2454ZM9.3828 13.7347C9.3798 13.7325 9.37685 13.7303 9.37393 13.7279C9.37102 13.7256 9.36816 13.7232 9.36534 13.7208C9.36252 13.7183 9.35975 13.7158 9.35703 13.7132C9.35432 13.7107 9.35165 13.708 9.34902 13.7054C9.34641 13.7027 9.34384 13.6999 9.34133 13.6972C9.33882 13.6944 9.33636 13.6915 9.33396 13.6886C9.33156 13.6857 9.32922 13.6828 9.32693 13.6798C9.32464 13.6768 9.32241 13.6738 9.32025 13.6707C9.31808 13.6676 9.31597 13.6645 9.31392 13.6613C9.31188 13.6581 9.30989 13.6549 9.30797 13.6517C9.30604 13.6484 9.30418 13.6451 9.30239 13.6418C9.3006 13.6384 9.29887 13.635 9.2972 13.6316C9.29553 13.6282 9.29393 13.6248 9.2924 13.6213C9.29087 13.6178 9.28941 13.6143 9.28801 13.6108C9.28662 13.6072 9.28529 13.6036 9.28403 13.6C9.28277 13.5964 9.28158 13.5928 9.28046 13.5892C9.27934 13.5855 9.27829 13.5818 9.27732 13.5781C9.27634 13.5744 9.27543 13.5707 9.2746 13.567C9.27376 13.5632 9.27299 13.5595 9.27231 13.5557C9.27162 13.5519 9.271 13.5481 9.27046 13.5443C9.26991 13.5405 9.26944 13.5367 9.26904 13.5329C9.26865 13.5291 9.26832 13.5252 9.26806 13.5214C9.26781 13.5176 9.26764 13.5137 9.26753 13.5099C9.26743 13.506 9.2674 13.5022 9.26744 13.4983C9.26748 13.4945 9.2676 13.4906 9.26779 13.4867C9.26798 13.4829 9.26824 13.479 9.26858 13.4752C9.26892 13.4714 9.26933 13.4675 9.26981 13.4637C9.2703 13.4599 9.27086 13.456 9.27148 13.4522C9.27212 13.4484 9.27282 13.4446 9.27359 13.4408C9.27436 13.4371 9.27521 13.4333 9.27613 13.4295C9.27705 13.4258 9.27804 13.4221 9.2791 13.4183C9.28016 13.4146 9.28129 13.4109 9.28249 13.4073C9.28369 13.4036 9.28496 13.4 9.2863 13.3963C9.28764 13.3927 9.28905 13.3891 9.29052 13.3856C9.292 13.382 9.29354 13.3785 9.29515 13.375C9.29676 13.3715 9.29844 13.368 9.30018 13.3646C9.30192 13.3611 9.30372 13.3577 9.30559 13.3544C9.30747 13.351 9.3094 13.3477 9.3114 13.3444C9.31339 13.3411 9.31545 13.3379 9.31757 13.3347C9.31968 13.3315 9.32186 13.3283 9.3241 13.3252C9.32634 13.3221 9.32864 13.319 9.33099 13.316C9.33335 13.313 9.33576 13.31 9.33822 13.3071C9.34068 13.3042 9.34321 13.3013 9.34578 13.2985C9.34836 13.2956 9.35098 13.2929 9.35365 13.2902C9.35634 13.2874 9.35906 13.2848 9.36184 13.2822C9.36462 13.2796 9.36744 13.277 9.37032 13.2745C9.37319 13.2721 9.37611 13.2696 9.37907 13.2673C9.38204 13.2649 9.38505 13.2626 9.38809 13.2603C9.39115 13.2581 9.39424 13.2559 9.39737 13.2538C9.4005 13.2517 9.40367 13.2496 9.40688 13.2476C9.41009 13.2456 9.41333 13.2437 9.41661 13.2418C9.41989 13.24 9.42321 13.2382 9.42655 13.2365C9.42989 13.2347 9.43327 13.2331 9.43667 13.2315C9.44008 13.2299 9.44352 13.2284 9.44698 13.227C9.45044 13.2255 9.45393 13.2242 9.45744 13.2229C9.46095 13.2216 9.46449 13.2203 9.46804 13.2192C9.4716 13.218 9.47518 13.2169 9.47877 13.2159C9.48237 13.2149 9.48598 13.214 9.4896 13.2131C9.49323 13.2123 9.49688 13.2115 9.50053 13.2108C9.50419 13.2101 9.50785 13.2095 9.51153 13.2089C9.51521 13.2083 9.5189 13.2079 9.52259 13.2075C9.52628 13.2071 9.52998 13.2067 9.53368 13.2065C9.53738 13.2062 9.54109 13.2061 9.54479 13.206C9.5485 13.2059 9.55221 13.2058 9.55591 13.2059L10.6508 13.2664C10.6556 13.2662 10.6604 13.2661 10.6652 13.2661C10.67 13.2662 10.6748 13.2663 10.6797 13.2666C10.6845 13.2669 10.6893 13.2673 10.694 13.2679C10.6988 13.2684 10.7036 13.2691 10.7083 13.2699C10.7131 13.2707 10.7178 13.2716 10.7225 13.2727C10.7272 13.2737 10.7318 13.2749 10.7365 13.2762C10.7411 13.2775 10.7457 13.279 10.7502 13.2805C10.7548 13.2821 10.7593 13.2838 10.7638 13.2856C10.7682 13.2874 10.7726 13.2893 10.777 13.2913C10.7814 13.2934 10.7857 13.2955 10.7899 13.2978C10.7942 13.3001 10.7984 13.3025 10.8025 13.305C10.8066 13.3075 10.8107 13.3101 10.8147 13.3128C10.8187 13.3155 10.8226 13.3184 10.8265 13.3213C10.8303 13.3242 10.8341 13.3273 10.8378 13.3304C10.8415 13.3336 10.8451 13.3368 10.8487 13.3402C10.8522 13.3435 10.8556 13.3469 10.859 13.3505C10.8624 13.354 10.8656 13.3576 10.8688 13.3613C10.872 13.365 10.8751 13.3688 10.878 13.3727C10.881 13.3766 10.8839 13.3806 10.8867 13.3846C10.8895 13.3886 10.8922 13.3927 10.8947 13.3969C10.8973 13.4011 10.8998 13.4054 10.9022 13.4097C10.9045 13.414 10.9068 13.4184 10.9089 13.4228C10.9111 13.4273 10.9131 13.4318 10.915 13.4364C10.9169 13.4409 10.9187 13.4455 10.9204 13.4502C10.9221 13.4549 10.9237 13.4596 10.9251 13.4643C10.9266 13.4691 10.9279 13.4739 10.9291 13.4787C10.9303 13.4835 10.9314 13.4884 10.9324 13.4933C10.9333 13.4981 10.9342 13.5031 10.9349 13.508C10.9356 13.5129 10.9362 13.5179 10.9367 13.5229C10.9372 13.5279 10.9375 13.5328 10.9378 13.5378C10.938 13.5428 10.9381 13.5478 10.9381 13.5529C10.9381 13.5579 10.9379 13.5629 10.9376 13.5679C10.9374 13.5729 10.937 13.5779 10.9365 13.5829C10.9359 13.5879 10.9353 13.5929 10.9345 13.5978C10.9338 13.6028 10.9329 13.6077 10.9319 13.6126C10.9308 13.6176 10.9297 13.6224 10.9285 13.6273C10.9272 13.6322 10.9258 13.637 10.9243 13.6418C10.9229 13.6466 10.9212 13.6513 10.9195 13.656C10.9178 13.6608 10.9159 13.6654 10.914 13.67C10.912 13.6746 10.91 13.6792 10.9078 13.6837C10.9056 13.6882 10.9033 13.6927 10.9009 13.6971C10.8985 13.7015 10.896 13.7058 10.8934 13.71C10.8907 13.7143 10.888 13.7185 10.8852 13.7226C10.8824 13.7267 10.8795 13.7307 10.8765 13.7347C10.8734 13.7387 10.8703 13.7426 10.8671 13.7463C10.8639 13.7501 10.8606 13.7539 10.8572 13.7575C10.8538 13.7611 10.8503 13.7646 10.8468 13.7681C10.8432 13.7715 10.8396 13.7749 10.8358 13.7781C10.8321 13.7814 10.8283 13.7845 10.8244 13.7876C10.8205 13.7906 10.8166 13.7935 10.8126 13.7964C10.8086 13.7992 10.8045 13.8019 10.8003 13.8046C10.7962 13.8072 10.7919 13.8097 10.7877 13.8121C10.7834 13.8145 10.7791 13.8167 10.7747 13.8189C10.7703 13.8211 10.7659 13.8231 10.7614 13.825C10.7569 13.827 10.7524 13.8288 10.7478 13.8305C10.7432 13.8321 10.7386 13.8337 10.734 13.8351C10.7294 13.8366 10.7247 13.8379 10.72 13.8391C10.7153 13.8403 10.7105 13.8413 10.7058 13.8423C10.7011 13.8432 10.6963 13.844 10.6915 13.8447C10.6867 13.8454 10.6819 13.8459 10.6771 13.8463C10.6723 13.8468 10.6675 13.847 10.6627 13.8472C10.6578 13.8474 10.653 13.8474 10.6482 13.8473C10.6434 13.8472 10.6386 13.847 10.6338 13.8466C10.629 13.8463 10.6242 13.8458 10.6194 13.8452L9.52457 13.7846C9.51822 13.7844 9.5119 13.7839 9.50559 13.7831C9.49929 13.7824 9.49302 13.7814 9.48678 13.7802C9.48055 13.779 9.47437 13.7776 9.46825 13.7759C9.46212 13.7743 9.45606 13.7724 9.45007 13.7703C9.44408 13.7682 9.43818 13.7659 9.43235 13.7633C9.42653 13.7608 9.4208 13.758 9.41518 13.755C9.40955 13.7521 9.40403 13.7489 9.39863 13.7455C9.39323 13.7421 9.38795 13.7385 9.3828 13.7347ZM11.5078 14.0155C11.5041 14.0128 11.5005 14.01 11.4969 14.0071C11.4933 14.0042 11.4898 14.0012 11.4864 13.9981C11.483 13.995 11.4796 13.9918 11.4764 13.9886C11.4731 13.9853 11.4699 13.982 11.4668 13.9785C11.4637 13.9751 11.4606 13.9716 11.4577 13.968C11.4547 13.9644 11.4519 13.9608 11.4491 13.9571C11.4463 13.9533 11.4436 13.9495 11.441 13.9456C11.4385 13.9418 11.436 13.9378 11.4336 13.9338C11.4311 13.9298 11.4288 13.9258 11.4266 13.9216C11.4244 13.9175 11.4223 13.9133 11.4203 13.9091C11.4183 13.9049 11.4164 13.9006 11.4146 13.8962C11.4128 13.8919 11.4111 13.8875 11.4095 13.8831C11.4079 13.8787 11.4064 13.8742 11.405 13.8697C11.4036 13.8652 11.4024 13.8606 11.4012 13.8561C11.4 13.8515 11.399 13.8469 11.398 13.8423C11.3971 13.8376 11.3962 13.8329 11.3955 13.8283C11.3948 13.8236 11.3941 13.8189 11.3936 13.8142C11.3931 13.8095 11.3927 13.8047 11.3924 13.8C11.3922 13.7952 11.392 13.7905 11.3919 13.7857C11.3919 13.781 11.3919 13.7762 11.3921 13.7715C11.3923 13.7667 11.3925 13.762 11.3929 13.7572C11.3933 13.7525 11.3938 13.7477 11.3944 13.743C11.3951 13.7383 11.3958 13.7336 11.3966 13.7289C11.3975 13.7242 11.3984 13.7195 11.3994 13.7149C11.4005 13.7102 11.4017 13.7056 11.4029 13.701C11.4042 13.6964 11.4056 13.6919 11.4071 13.6873C11.4086 13.6828 11.4102 13.6783 11.4119 13.6739C11.4135 13.6694 11.4154 13.665 11.4173 13.6607C11.4192 13.6563 11.4212 13.652 11.4233 13.6477C11.4254 13.6435 11.4276 13.6393 11.4299 13.6351C11.4322 13.6309 11.4346 13.6268 11.4371 13.6228C11.4396 13.6188 11.4422 13.6148 11.4448 13.6109L12.4474 12.1369C12.45 12.1329 12.4526 12.1289 12.4553 12.1251C12.458 12.1212 12.4608 12.1174 12.4637 12.1136C12.4666 12.1099 12.4696 12.1063 12.4726 12.1027C12.4757 12.0991 12.4789 12.0956 12.4821 12.0922C12.4853 12.0888 12.4887 12.0855 12.492 12.0822C12.4955 12.079 12.4989 12.0758 12.5025 12.0728C12.506 12.0697 12.5096 12.0668 12.5133 12.0639C12.517 12.061 12.5208 12.0583 12.5246 12.0556C12.5284 12.0529 12.5323 12.0504 12.5363 12.0479C12.5402 12.0454 12.5442 12.0431 12.5483 12.0408C12.5523 12.0386 12.5565 12.0364 12.5606 12.0344C12.5648 12.0324 12.569 12.0304 12.5732 12.0286C12.5775 12.0268 12.5818 12.0251 12.5861 12.0235C12.5904 12.0219 12.5948 12.0204 12.5992 12.0191C12.6036 12.0177 12.608 12.0165 12.6125 12.0154C12.617 12.0142 12.6214 12.0132 12.6259 12.0123C12.6304 12.0114 12.635 12.0107 12.6395 12.01C12.644 12.0094 12.6486 12.0089 12.6531 12.0085C12.6577 12.008 12.6623 12.0078 12.6668 12.0076C12.6714 12.0074 12.676 12.0074 12.6805 12.0075C12.6851 12.0075 12.6897 12.0077 12.6942 12.0081C12.6988 12.0084 12.7033 12.0088 12.7078 12.0094C12.7124 12.0099 12.7169 12.0106 12.7214 12.0114C12.7258 12.0122 12.7303 12.0132 12.7347 12.0142C12.7392 12.0152 12.7436 12.0164 12.748 12.0177C12.7523 12.0189 12.7567 12.0203 12.761 12.0218C12.7653 12.0233 12.7696 12.025 12.7738 12.0267C12.778 12.0284 12.7822 12.0303 12.7863 12.0322C12.7904 12.0342 12.7945 12.0363 12.7985 12.0385C12.8026 12.0406 12.8065 12.0429 12.8104 12.0453C12.8144 12.0477 12.8182 12.0502 12.822 12.0528C12.8257 12.0554 12.8295 12.0581 12.8331 12.0609C12.8369 12.0635 12.8407 12.0663 12.8443 12.0692C12.848 12.072 12.8516 12.075 12.8551 12.0781C12.8587 12.0811 12.8621 12.0842 12.8655 12.0875C12.8689 12.0907 12.8722 12.094 12.8754 12.0975C12.8786 12.1008 12.8817 12.1043 12.8848 12.1079C12.8878 12.1115 12.8908 12.1151 12.8936 12.1189C12.8965 12.1226 12.8993 12.1264 12.902 12.1303C12.9046 12.1342 12.9072 12.1381 12.9097 12.1421C12.9122 12.1461 12.9146 12.1502 12.9169 12.1544C12.9192 12.1585 12.9214 12.1627 12.9235 12.167C12.9256 12.1712 12.9276 12.1755 12.9295 12.1799C12.9313 12.1842 12.9331 12.1887 12.9348 12.1931C12.9365 12.1976 12.938 12.2021 12.9395 12.2066C12.9409 12.2112 12.9423 12.2158 12.9435 12.2204C12.9447 12.225 12.9459 12.2297 12.9469 12.2343C12.9479 12.239 12.9488 12.2437 12.9496 12.2485C12.9503 12.2532 12.951 12.2579 12.9516 12.2627C12.9521 12.2675 12.9526 12.2723 12.9529 12.2771C12.9532 12.2819 12.9534 12.2867 12.9535 12.2915C12.9536 12.2963 12.9536 12.3011 12.9535 12.3059C12.9534 12.3108 12.9531 12.3156 12.9527 12.3204C12.9524 12.3252 12.9519 12.33 12.9513 12.3348C12.9507 12.3396 12.95 12.3443 12.9492 12.3491C12.9484 12.3538 12.9474 12.3586 12.9464 12.3633C12.9453 12.368 12.9442 12.3727 12.9429 12.3773C12.9417 12.382 12.9403 12.3866 12.9388 12.3912C12.9373 12.3958 12.9357 12.4003 12.934 12.4049C12.9323 12.4094 12.9305 12.4138 12.9286 12.4183C12.9267 12.4227 12.9246 12.427 12.9225 12.4314C12.9204 12.4357 12.9182 12.44 12.9158 12.4442C12.9135 12.4484 12.9111 12.4525 12.9086 12.4566C12.906 12.4607 12.9034 12.4647 12.9007 12.4687L11.9211 13.9588C11.9182 13.9629 11.9152 13.9669 11.9121 13.9709C11.909 13.9748 11.9058 13.9787 11.9025 13.9825C11.8993 13.9863 11.8959 13.99 11.8924 13.9936C11.889 13.9972 11.8854 14.0007 11.8818 14.0041C11.8782 14.0075 11.8745 14.0109 11.8707 14.0141C11.8669 14.0173 11.863 14.0204 11.8591 14.0235C11.8551 14.0265 11.8511 14.0294 11.847 14.0322C11.843 14.035 11.8388 14.0377 11.8346 14.0404C11.8304 14.0429 11.8261 14.0454 11.8218 14.0478C11.8175 14.0502 11.8131 14.0524 11.8087 14.0546C11.8042 14.0567 11.7997 14.0587 11.7952 14.0606C11.7907 14.0626 11.7861 14.0643 11.7815 14.066C11.7769 14.0677 11.7722 14.0692 11.7675 14.0706C11.7629 14.072 11.7581 14.0733 11.7534 14.0745C11.7487 14.0757 11.7439 14.0767 11.7391 14.0776C11.7343 14.0786 11.7295 14.0793 11.7247 14.08C11.7199 14.0807 11.715 14.0812 11.7102 14.0816C11.7053 14.082 11.7005 14.0823 11.6956 14.0824C11.6907 14.0826 11.6859 14.0826 11.681 14.0825C11.6762 14.0824 11.6713 14.0821 11.6665 14.0818C11.6617 14.0814 11.6568 14.0809 11.652 14.0803C11.6472 14.0797 11.6425 14.0789 11.6377 14.078C11.6329 14.0772 11.6282 14.0761 11.6235 14.075C11.6187 14.0739 11.6141 14.0726 11.6094 14.0712C11.6048 14.0698 11.6002 14.0683 11.5956 14.0667C11.591 14.0651 11.5865 14.0633 11.582 14.0615C11.5775 14.0596 11.5731 14.0576 11.5687 14.0555C11.5644 14.0534 11.5601 14.0512 11.5558 14.0488C11.5515 14.0465 11.5473 14.044 11.5432 14.0415C11.5391 14.0389 11.535 14.0362 11.531 14.0334C11.527 14.0307 11.523 14.0278 11.5192 14.0248C11.5153 14.0218 11.5115 14.0187 11.5078 14.0155ZM14.8406 11.6727C14.8369 11.67 14.8333 11.6672 14.8297 11.6643C14.8261 11.6614 14.8226 11.6584 14.8192 11.6553C14.8158 11.6522 14.8124 11.649 14.8091 11.6458C14.8059 11.6425 14.8027 11.6392 14.7996 11.6358C14.7964 11.6323 14.7934 11.6288 14.7905 11.6252C14.7875 11.6217 14.7847 11.618 14.7819 11.6143C14.7791 11.6105 14.7764 11.6067 14.7738 11.6029C14.7712 11.599 14.7687 11.5951 14.7663 11.5911C14.7639 11.5871 14.7616 11.583 14.7594 11.5789C14.7572 11.5747 14.7551 11.5706 14.7531 11.5663C14.7511 11.5621 14.7492 11.5578 14.7474 11.5535C14.7456 11.5491 14.7439 11.5447 14.7423 11.5403C14.7407 11.5359 14.7392 11.5314 14.7378 11.5269C14.7364 11.5224 14.7352 11.5179 14.734 11.5133C14.7328 11.5087 14.7317 11.5041 14.7308 11.4995C14.7299 11.4948 14.729 11.4902 14.7283 11.4855C14.7276 11.4808 14.7269 11.4761 14.7264 11.4714C14.7259 11.4667 14.7255 11.4619 14.7252 11.4572C14.725 11.4525 14.7248 11.4477 14.7247 11.443C14.7247 11.4382 14.7247 11.4334 14.7249 11.4287C14.7251 11.4239 14.7253 11.4192 14.7257 11.4144C14.7261 11.4097 14.7266 11.405 14.7272 11.4002C14.7278 11.3955 14.7286 11.3908 14.7294 11.3861C14.7302 11.3814 14.7312 11.3767 14.7322 11.3721C14.7333 11.3674 14.7345 11.3628 14.7357 11.3582C14.737 11.3536 14.7384 11.3491 14.7399 11.3446C14.7414 11.34 14.743 11.3355 14.7447 11.3311C14.7463 11.3266 14.7481 11.3222 14.7501 11.3179C14.7519 11.3135 14.754 11.3092 14.7561 11.3049C14.7582 11.3007 14.7604 11.2965 14.7627 11.2923C14.765 11.2882 14.7674 11.2841 14.7699 11.28C14.7724 11.276 14.7749 11.272 14.7776 11.2681L15.4742 10.2086C15.477 10.2047 15.4799 10.2008 15.4829 10.197C15.4858 10.1932 15.4889 10.1895 15.4921 10.1859C15.4952 10.1822 15.4985 10.1787 15.5018 10.1752C15.5051 10.1717 15.5085 10.1683 15.512 10.165C15.5155 10.1617 15.519 10.1585 15.5226 10.1554C15.5263 10.1522 15.53 10.1492 15.5337 10.1463C15.5375 10.1433 15.5413 10.1405 15.5452 10.1377C15.5491 10.135 15.5531 10.1324 15.5571 10.1298C15.5611 10.1273 15.5652 10.1248 15.5693 10.1225C15.5735 10.1201 15.5776 10.1179 15.5819 10.1158C15.5861 10.1136 15.5904 10.1116 15.5947 10.1097C15.599 10.1078 15.6034 10.106 15.6078 10.1043C15.6122 10.1026 15.6167 10.1011 15.6211 10.0996C15.6256 10.0981 15.6301 10.0968 15.6347 10.0955C15.6392 10.0943 15.6438 10.0932 15.6483 10.0922C15.6529 10.0912 15.6575 10.0903 15.6622 10.0895C15.6668 10.0888 15.6714 10.0881 15.6761 10.0876C15.6807 10.087 15.6854 10.0866 15.69 10.0863C15.6947 10.086 15.6994 10.0859 15.704 10.0858C15.7087 10.0858 15.7134 10.0858 15.718 10.086C15.7227 10.0862 15.7274 10.0865 15.732 10.0869C15.7367 10.0873 15.7413 10.0879 15.7459 10.0885C15.7505 10.0892 15.7551 10.09 15.7597 10.0909C15.7643 10.0918 15.7688 10.0928 15.7733 10.0939C15.7778 10.095 15.7823 10.0963 15.7868 10.0976C15.7913 10.099 15.7957 10.1005 15.8001 10.102C15.8044 10.1036 15.8088 10.1053 15.8131 10.1071C15.8174 10.1089 15.8217 10.1109 15.8259 10.1129C15.8301 10.1149 15.8342 10.117 15.8383 10.1193C15.8424 10.1215 15.8465 10.1239 15.8505 10.1263C15.8545 10.1288 15.8584 10.1313 15.8622 10.134C15.8661 10.1366 15.8699 10.1394 15.8736 10.1422C15.8774 10.1449 15.8812 10.1477 15.8849 10.1505C15.8885 10.1534 15.8921 10.1564 15.8957 10.1594C15.8992 10.1625 15.9026 10.1656 15.906 10.1689C15.9094 10.1721 15.9127 10.1754 15.9159 10.1788C15.9191 10.1822 15.9223 10.1857 15.9253 10.1893C15.9283 10.1929 15.9313 10.1965 15.9342 10.2002C15.937 10.204 15.9398 10.2078 15.9425 10.2117C15.9452 10.2155 15.9478 10.2195 15.9503 10.2235C15.9527 10.2275 15.9551 10.2316 15.9574 10.2357C15.9597 10.2399 15.9619 10.2441 15.964 10.2483C15.9661 10.2526 15.9681 10.2569 15.97 10.2613C15.9719 10.2656 15.9736 10.27 15.9753 10.2745C15.977 10.279 15.9785 10.2835 15.98 10.288C15.9815 10.2926 15.9828 10.2971 15.984 10.3018C15.9853 10.3064 15.9864 10.311 15.9874 10.3157C15.9884 10.3204 15.9893 10.3251 15.9901 10.3298C15.9909 10.3346 15.9915 10.3393 15.9921 10.3441C15.9927 10.3489 15.9931 10.3536 15.9934 10.3584C15.9938 10.3632 15.994 10.368 15.9941 10.3729C15.9942 10.3777 15.9941 10.3825 15.994 10.3873C15.9939 10.3921 15.9936 10.3969 15.9933 10.4017C15.9929 10.4066 15.9924 10.4113 15.9918 10.4161C15.9912 10.4209 15.9905 10.4257 15.9897 10.4305C15.9889 10.4352 15.988 10.4399 15.9869 10.4447C15.9859 10.4494 15.9847 10.4541 15.9835 10.4587C15.9822 10.4634 15.9808 10.468 15.9793 10.4726C15.9778 10.4772 15.9762 10.4817 15.9745 10.4862C15.9728 10.4907 15.971 10.4952 15.9691 10.4996C15.9672 10.504 15.9652 10.5084 15.963 10.5127C15.9609 10.5171 15.9587 10.5213 15.9564 10.5255C15.954 10.5297 15.9516 10.5339 15.9491 10.538C15.9466 10.5421 15.944 10.5461 15.9412 10.55L15.2447 11.6096C15.2419 11.6137 15.239 11.6176 15.2361 11.6216C15.2331 11.6255 15.2301 11.6293 15.2269 11.6331C15.2237 11.6369 15.2205 11.6405 15.2172 11.6441C15.2138 11.6477 15.2104 11.6512 15.2069 11.6547C15.2034 11.6581 15.1998 11.6614 15.1962 11.6646C15.1925 11.6679 15.1888 11.671 15.185 11.674C15.1812 11.6771 15.1773 11.68 15.1733 11.6828C15.1694 11.6857 15.1654 11.6884 15.1613 11.691C15.1572 11.6936 15.1531 11.6961 15.1489 11.6985C15.1447 11.7009 15.1404 11.7032 15.1361 11.7054C15.1318 11.7076 15.1274 11.7097 15.123 11.7116C15.1186 11.7136 15.1142 11.7154 15.1097 11.7171C15.1052 11.7188 15.1007 11.7204 15.0961 11.7219C15.0915 11.7234 15.0869 11.7247 15.0823 11.7259C15.0777 11.7272 15.073 11.7283 15.0683 11.7293C15.0637 11.7303 15.059 11.7311 15.0542 11.7319C15.0495 11.7326 15.0448 11.7332 15.04 11.7337C15.0353 11.7342 15.0306 11.7345 15.0258 11.7348C15.021 11.735 15.0163 11.7351 15.0115 11.7351C15.0068 11.7351 15.002 11.7349 14.9973 11.7347C14.9925 11.7344 14.9878 11.734 14.9831 11.7335C14.9783 11.7329 14.9736 11.7323 14.969 11.7315C14.9643 11.7308 14.9596 11.7299 14.955 11.7288C14.9503 11.7278 14.9457 11.7267 14.9412 11.7254C14.9366 11.7241 14.932 11.7227 14.9275 11.7212C14.923 11.7197 14.9186 11.7181 14.9141 11.7163C14.9097 11.7146 14.9053 11.7127 14.901 11.7108C14.8967 11.7088 14.8924 11.7067 14.8882 11.7045C14.884 11.7022 14.8798 11.6999 14.8757 11.6975C14.8716 11.6951 14.8676 11.6925 14.8636 11.6899C14.8596 11.6872 14.8558 11.6844 14.8519 11.6816C14.8481 11.6787 14.8443 11.6758 14.8406 11.6727Z"   fill="#FFFFFF" >
</path>
<path d="M18.8232 14.5621C18.8196 14.5593 18.816 14.5565 18.8126 14.5535C18.8091 14.5506 18.8056 14.5475 18.8023 14.5444C18.7989 14.5412 18.7956 14.538 18.7924 14.5347C18.7892 14.5315 18.7861 14.5281 18.783 14.5246C18.7799 14.5212 18.777 14.5176 18.7741 14.514C18.7712 14.5104 18.7684 14.5067 18.7657 14.503C18.763 14.4993 18.7604 14.4954 18.7578 14.4916C18.7553 14.4877 18.7528 14.4837 18.7505 14.4797C18.7482 14.4757 18.7459 14.4717 18.7437 14.4675C18.7415 14.4634 18.7395 14.4592 18.7375 14.455C18.7356 14.4508 18.7337 14.4465 18.7319 14.4421C18.7302 14.4378 18.7285 14.4335 18.7269 14.429C18.7254 14.4246 18.7239 14.4202 18.7225 14.4157C18.7211 14.4112 18.7199 14.4067 18.7188 14.4021C18.7176 14.3976 18.7165 14.393 18.7156 14.3884C18.7146 14.3838 18.7138 14.3791 18.7131 14.3745C18.7124 14.3698 18.7118 14.3651 18.7113 14.3605C18.7107 14.3557 18.7103 14.351 18.71 14.3463C18.7098 14.3416 18.7096 14.3369 18.7095 14.3322C18.7094 14.3274 18.7095 14.3227 18.7096 14.318C18.7097 14.3132 18.71 14.3085 18.7104 14.3038C18.7107 14.2991 18.7112 14.2943 18.7118 14.2896C18.7123 14.2849 18.713 14.2803 18.7138 14.2756C18.7146 14.2709 18.7155 14.2662 18.7165 14.2616C18.7175 14.257 18.7187 14.2524 18.7199 14.2478C18.7211 14.2432 18.7224 14.2387 18.7238 14.2341C18.7253 14.2296 18.7268 14.2251 18.7284 14.2207C18.73 14.2162 18.7318 14.2118 18.7336 14.2075C18.7355 14.2031 18.7374 14.1988 18.7394 14.1945C18.7414 14.1902 18.7436 14.186 18.7458 14.1818C18.748 14.1777 18.7503 14.1735 18.7527 14.1695C18.7551 14.1655 18.7577 14.1615 18.7603 14.1575L19.4568 13.098C19.4592 13.0939 19.4618 13.0899 19.4645 13.0859C19.4671 13.0819 19.4698 13.078 19.4726 13.0742C19.4755 13.0704 19.4784 13.0667 19.4815 13.063C19.4845 13.0594 19.4876 13.0558 19.4908 13.0523C19.494 13.0488 19.4973 13.0454 19.5007 13.0421C19.5041 13.0388 19.5075 13.0356 19.511 13.0324C19.5146 13.0293 19.5182 13.0263 19.5219 13.0234C19.5255 13.0204 19.5293 13.0176 19.5331 13.0149C19.5369 13.0121 19.5408 13.0095 19.5448 13.007C19.5487 13.0045 19.5527 13.002 19.5568 12.9997C19.5609 12.9974 19.565 12.9952 19.5692 12.9931C19.5733 12.991 19.5775 12.9891 19.5819 12.9873C19.5861 12.9854 19.5904 12.9836 19.5947 12.982C19.5991 12.9804 19.6035 12.9789 19.6079 12.9775C19.6124 12.9761 19.6168 12.9749 19.6213 12.9738C19.6258 12.9726 19.6303 12.9716 19.6349 12.9707C19.6394 12.9698 19.6439 12.969 19.6485 12.9684C19.653 12.9677 19.6576 12.9672 19.6622 12.9668C19.6668 12.9664 19.6714 12.9661 19.676 12.966C19.6806 12.9659 19.6852 12.9658 19.6898 12.966C19.6944 12.9661 19.699 12.9663 19.7036 12.9667C19.7081 12.967 19.7127 12.9675 19.7172 12.9681C19.7218 12.9687 19.7264 12.9694 19.7309 12.9703C19.7354 12.9711 19.7398 12.9721 19.7443 12.9732C19.7488 12.9743 19.7532 12.9755 19.7576 12.9769C19.762 12.9782 19.7663 12.9797 19.7706 12.9813C19.7749 12.9828 19.7792 12.9845 19.7834 12.9864C19.7876 12.9882 19.7918 12.9901 19.796 12.9922C19.8001 12.9942 19.8041 12.9964 19.8081 12.9986C19.8121 13.0009 19.8161 13.0033 19.82 13.0058C19.8239 13.0083 19.8277 13.0109 19.8314 13.0135C19.8352 13.0163 19.8389 13.0191 19.8424 13.022C19.8462 13.0246 19.8499 13.0273 19.8535 13.0302C19.8572 13.033 19.8607 13.0359 19.8642 13.0389C19.8677 13.0419 19.8711 13.045 19.8745 13.0482C19.8778 13.0514 19.881 13.0547 19.8842 13.058C19.8874 13.0614 19.8905 13.0648 19.8935 13.0683C19.8966 13.0719 19.8995 13.0755 19.9023 13.0791C19.9051 13.0828 19.9079 13.0865 19.9106 13.0904C19.9133 13.0942 19.9158 13.0981 19.9183 13.102C19.9208 13.106 19.9232 13.11 19.9254 13.1141C19.9277 13.1181 19.9299 13.1223 19.932 13.1264C19.9341 13.1306 19.9361 13.1349 19.938 13.1392C19.9399 13.1435 19.9417 13.1478 19.9434 13.1522C19.945 13.1566 19.9466 13.161 19.948 13.1655C19.9495 13.17 19.9509 13.1745 19.9522 13.179C19.9534 13.1836 19.9546 13.1882 19.9556 13.1928C19.9566 13.1974 19.9576 13.202 19.9584 13.2067C19.9592 13.2114 19.9599 13.216 19.9605 13.2207C19.9611 13.2255 19.9616 13.2302 19.9619 13.2349C19.9623 13.2396 19.9626 13.2444 19.9627 13.2491C19.9629 13.2539 19.9629 13.2586 19.9629 13.2634C19.9628 13.2681 19.9626 13.2729 19.9623 13.2777C19.962 13.2824 19.9616 13.2871 19.961 13.2919C19.9606 13.2966 19.9599 13.3013 19.9592 13.306C19.9585 13.3108 19.9576 13.3154 19.9566 13.3201C19.9556 13.3248 19.9546 13.3294 19.9534 13.334C19.9522 13.3386 19.9509 13.3432 19.9495 13.3478C19.9481 13.3523 19.9466 13.3568 19.945 13.3613C19.9434 13.3658 19.9417 13.3702 19.9399 13.3747C19.9381 13.379 19.9361 13.3834 19.9341 13.3877C19.9321 13.392 19.9299 13.3962 19.9277 13.4004C19.9255 13.4046 19.9232 13.4088 19.9207 13.4128C19.9183 13.4169 19.9158 13.421 19.9133 13.4249L19.2167 14.4845C19.2141 14.4885 19.2113 14.4924 19.2085 14.4963C19.2057 14.5001 19.2028 14.504 19.1998 14.5077C19.1968 14.5114 19.1937 14.5151 19.1905 14.5186C19.1874 14.5222 19.1841 14.5257 19.1807 14.5291C19.1774 14.5325 19.174 14.5358 19.1705 14.539C19.167 14.5423 19.1634 14.5454 19.1598 14.5484C19.1562 14.5515 19.1525 14.5545 19.1487 14.5573C19.1449 14.5602 19.1411 14.5629 19.1372 14.5656C19.1332 14.5683 19.1293 14.5708 19.1253 14.5733C19.1213 14.5758 19.1172 14.5781 19.1131 14.5804C19.1089 14.5826 19.1047 14.5848 19.1005 14.5868C19.0962 14.5888 19.092 14.5908 19.0877 14.5926C19.0833 14.5944 19.079 14.5961 19.0746 14.5977C19.0702 14.5993 19.0658 14.6008 19.0613 14.6022C19.0568 14.6035 19.0523 14.6048 19.0478 14.6059C19.0433 14.607 19.0387 14.608 19.0342 14.6089C19.0296 14.6098 19.025 14.6106 19.0204 14.6113C19.0158 14.6119 19.0112 14.6125 19.0066 14.6129C19.002 14.6134 18.9973 14.6137 18.9927 14.6138C18.9881 14.614 18.9835 14.6141 18.9789 14.6141C18.9742 14.614 18.9696 14.6138 18.9649 14.6135C18.9603 14.6132 18.9557 14.6128 18.9511 14.6123C18.9466 14.6118 18.942 14.6111 18.9374 14.6104C18.9329 14.6096 18.9283 14.6087 18.9238 14.6077C18.9193 14.6067 18.9148 14.6056 18.9103 14.6044C18.9059 14.6031 18.9015 14.6018 18.8971 14.6003C18.8927 14.5989 18.8884 14.5973 18.884 14.5956C18.8797 14.5939 18.8754 14.5921 18.8712 14.5901C18.867 14.5882 18.8629 14.5862 18.8587 14.5841C18.8546 14.582 18.8506 14.5797 18.8465 14.5774C18.8425 14.575 18.8386 14.5726 18.8347 14.57C18.8308 14.5675 18.827 14.5648 18.8232 14.5621ZM14.9764 20.2195C14.9727 20.2168 14.9691 20.214 14.9655 20.2111C14.962 20.2082 14.9585 20.2051 14.955 20.2021C14.9516 20.199 14.9482 20.1958 14.9449 20.1926C14.9417 20.1893 14.9385 20.186 14.9354 20.1825C14.9322 20.1791 14.9292 20.1756 14.9262 20.1721C14.9233 20.1685 14.9205 20.1648 14.9177 20.1611C14.9149 20.1573 14.9122 20.1536 14.9097 20.1497C14.9071 20.1458 14.9046 20.1418 14.9022 20.1378C14.8997 20.1338 14.8975 20.1297 14.8952 20.1257C14.893 20.1215 14.8909 20.1173 14.8889 20.1132C14.8869 20.1089 14.885 20.1046 14.8831 20.1003C14.8814 20.0959 14.8797 20.0916 14.8781 20.0871C14.8765 20.0826 14.875 20.0782 14.8736 20.0737C14.8722 20.0692 14.871 20.0647 14.8698 20.0602C14.8686 20.0556 14.8675 20.051 14.8666 20.0463C14.8656 20.0417 14.8648 20.037 14.8641 20.0323C14.8634 20.0276 14.8627 20.0229 14.8622 20.0182C14.8618 20.0134 14.8613 20.0087 14.861 20.004C14.8608 19.9992 14.8606 19.9945 14.8605 19.9898C14.8605 19.985 14.8606 19.9802 14.8607 19.9755C14.8609 19.9707 14.8612 19.9659 14.8616 19.9612C14.8619 19.9565 14.8625 19.9517 14.8631 19.947C14.8637 19.9423 14.8644 19.9376 14.8652 19.9329C14.8661 19.9282 14.867 19.9235 14.868 19.9189C14.8691 19.9143 14.8703 19.9096 14.8715 19.905C14.8728 19.9004 14.8742 19.8959 14.8757 19.8913C14.8772 19.8868 14.8788 19.8823 14.8805 19.8779C14.8822 19.8734 14.884 19.869 14.8859 19.8647C14.8878 19.8603 14.8898 19.856 14.8919 19.8517C14.894 19.8475 14.8962 19.8433 14.8985 19.8391C14.9008 19.835 14.9032 19.8309 14.9057 19.8268C14.9082 19.8228 14.9108 19.8188 14.9134 19.8149L15.5209 18.8908C15.5234 18.8867 15.526 18.8826 15.5287 18.8786C15.5313 18.8746 15.5341 18.8706 15.537 18.8668C15.5399 18.8629 15.5428 18.8591 15.5459 18.8554C15.549 18.8517 15.5522 18.8481 15.5554 18.8445C15.5587 18.841 15.562 18.8376 15.5654 18.8342C15.5688 18.8309 15.5724 18.8276 15.5759 18.8244C15.5795 18.8213 15.5832 18.8182 15.5869 18.8153C15.5907 18.8123 15.5945 18.8094 15.5984 18.8067C15.6023 18.8039 15.6062 18.8013 15.6102 18.7988C15.6142 18.7962 15.6183 18.7938 15.6225 18.7915C15.6266 18.7892 15.6308 18.787 15.635 18.7849C15.6393 18.7828 15.6436 18.7808 15.6479 18.779C15.6523 18.7771 15.6566 18.7754 15.6611 18.7738C15.6655 18.7722 15.67 18.7707 15.6745 18.7694C15.6789 18.768 15.6835 18.7667 15.688 18.7656C15.6926 18.7645 15.6972 18.7636 15.7018 18.7627C15.7064 18.7618 15.711 18.7611 15.7156 18.7605C15.7203 18.7599 15.7249 18.7594 15.7296 18.7591C15.7343 18.7587 15.7389 18.7585 15.7435 18.7584C15.7482 18.7583 15.7529 18.7584 15.7575 18.7586C15.7622 18.7587 15.7668 18.759 15.7715 18.7594C15.7761 18.7599 15.7807 18.7604 15.7853 18.7611C15.7899 18.7618 15.7945 18.7626 15.7991 18.7635C15.8036 18.7645 15.8082 18.7655 15.8127 18.7667C15.8171 18.7679 15.8216 18.7692 15.8261 18.7707C15.8305 18.7721 15.8349 18.7737 15.8392 18.7753C15.8435 18.777 15.8478 18.7788 15.852 18.7807C15.8563 18.7827 15.8605 18.7847 15.8647 18.7869C15.8688 18.789 15.8729 18.7913 15.8769 18.7937C15.8809 18.7961 15.8849 18.7985 15.8888 18.8012C15.8926 18.8038 15.8964 18.8065 15.9002 18.8093C15.9039 18.8121 15.9076 18.815 15.9112 18.818C15.915 18.8207 15.9187 18.8234 15.9223 18.8263C15.926 18.8291 15.9296 18.8321 15.9331 18.8351C15.9366 18.8382 15.94 18.8413 15.9433 18.8445C15.9467 18.8477 15.95 18.851 15.9532 18.8544C15.9563 18.8578 15.9594 18.8613 15.9624 18.8648C15.9655 18.8684 15.9684 18.872 15.9713 18.8758C15.9741 18.8795 15.9768 18.8832 15.9795 18.8871C15.9821 18.891 15.9847 18.8949 15.9871 18.8989C15.9896 18.9029 15.992 18.907 15.9942 18.9111C15.9965 18.9152 15.9986 18.9194 16.0007 18.9237C16.0027 18.9279 16.0047 18.9322 16.0065 18.9365C16.0083 18.9409 16.0101 18.9453 16.0117 18.9497C16.0133 18.9542 16.0148 18.9586 16.0163 18.9632C16.0177 18.9677 16.019 18.9723 16.0201 18.9769C16.0213 18.9815 16.0224 18.9861 16.0234 18.9908C16.0244 18.9954 16.0252 19.0001 16.0259 19.0048C16.0266 19.0095 16.0273 19.0143 16.0278 19.019C16.0283 19.0238 16.0287 19.0285 16.0289 19.0333C16.0292 19.0381 16.0294 19.0428 16.0294 19.0476C16.0295 19.0524 16.0294 19.0572 16.0292 19.0619C16.029 19.0667 16.0287 19.0715 16.0283 19.0763C16.0278 19.0811 16.0273 19.0858 16.0266 19.0906C16.026 19.0953 16.0253 19.1001 16.0243 19.1048C16.0235 19.1095 16.0225 19.1142 16.0214 19.1188C16.0203 19.1235 16.0191 19.1281 16.0177 19.1327C16.0164 19.1373 16.015 19.1419 16.0134 19.1465C16.0119 19.151 16.0102 19.1555 16.0084 19.1599C16.0067 19.1644 16.0048 19.1687 16.0028 19.1731C16.0008 19.1775 15.9987 19.1818 15.9966 19.186C15.9944 19.1903 15.9921 19.1945 15.9897 19.1986C15.9873 19.2027 15.9848 19.2068 15.9822 19.2108C15.9797 19.2148 15.977 19.2188 15.9742 19.2226L15.3667 20.1467C15.364 20.1506 15.3613 20.1545 15.3584 20.1582C15.3555 20.162 15.3526 20.1657 15.3496 20.1693C15.3466 20.1729 15.3435 20.1765 15.3403 20.1799C15.3371 20.1834 15.3338 20.1868 15.3304 20.1901C15.3271 20.1934 15.3237 20.1966 15.3202 20.1998C15.3167 20.2029 15.3131 20.2059 15.3094 20.2089C15.3058 20.2118 15.3021 20.2147 15.2983 20.2174C15.2946 20.2202 15.2907 20.2229 15.2868 20.2254C15.2829 20.228 15.279 20.2305 15.275 20.2328C15.271 20.2352 15.2669 20.2375 15.2628 20.2397C15.2587 20.2418 15.2546 20.2439 15.2504 20.2458C15.2462 20.2478 15.2419 20.2496 15.2376 20.2514C15.2333 20.2531 15.229 20.2547 15.2246 20.2562C15.2203 20.2578 15.2159 20.2592 15.2115 20.2605C15.2071 20.2618 15.2026 20.263 15.1981 20.2641C15.1936 20.2652 15.1892 20.2661 15.1846 20.267C15.1801 20.2678 15.1756 20.2685 15.1711 20.2691C15.1665 20.2697 15.1619 20.2702 15.1574 20.2706C15.1528 20.271 15.1482 20.2713 15.1436 20.2714C15.139 20.2715 15.1345 20.2716 15.1299 20.2715C15.1253 20.2713 15.1208 20.2711 15.1162 20.2708C15.1116 20.2705 15.1071 20.2701 15.1026 20.2695C15.0981 20.269 15.0936 20.2683 15.0891 20.2676C15.0846 20.2667 15.0801 20.2659 15.0756 20.2648C15.0712 20.2638 15.0668 20.2627 15.0623 20.2615C15.058 20.2602 15.0536 20.2588 15.0492 20.2574C15.0449 20.2559 15.0407 20.2543 15.0364 20.2527C15.0322 20.251 15.028 20.2492 15.0238 20.2473C15.0196 20.2454 15.0155 20.2433 15.0114 20.2413C15.0074 20.2391 15.0034 20.2369 14.9994 20.2347C14.9955 20.2323 14.9916 20.2299 14.9877 20.2274C14.9839 20.2248 14.9801 20.2222 14.9764 20.2195Z"   fill="#FFFFFF" >
</path>
<path d="M20.7559 23.1157C23.8983 21.2427 24.916 17.185 23.1305 13.9921L19.9068 8.2276L18.9201 8.8157L22.1438 14.5802C23.594 17.1733 22.7427 20.5837 20.1906 22.1048C17.5977 23.6503 14.3835 22.7184 12.9102 20.0838L12.8168 19.9167L11.8301 20.5048L11.9235 20.6719C13.6807 23.8141 17.6635 24.9589 20.7559 23.1157ZM21.2025 22.5881C21.0303 22.7162 20.8503 22.8366 20.6626 22.9485C17.659 24.7388 13.8223 23.6749 12.088 20.5738L12.088 20.5739C12.1192 20.6298 12.1512 20.6851 12.1838 20.7396C13.9602 23.7124 17.7131 24.7066 20.6625 22.9486C20.8503 22.8367 21.0303 22.7163 21.2025 22.5881ZM20.9807 21.7808C23.0743 20.0502 23.6903 16.9536 22.3083 14.4822L19.178 8.88477L19.1781 8.88472L22.3084 14.4821C23.6904 16.9536 23.0744 20.0502 20.9807 21.7808Z" fill-rule="evenodd"  fill="#FFFFFF" >
</path>
</svg>
