<svg xmlns="http://www.w3.org/2000/svg" xmlns:xlink="http://www.w3.org/1999/xlink" width="32" height="32" viewBox="0 0 32 32" fill="none">
<rect  x="0" y="0" width="32" height="32" rx="6"    fill="#02AF68" >
</rect>
<path d="M10.7987 8.00038C10.8258 8.00038 10.8529 8.00084 10.8799 8.00175C10.907 8.00266 10.934 8.00403 10.9611 8.00585C10.9881 8.00768 11.0151 8.00995 11.042 8.01269C11.069 8.01542 11.0959 8.01861 11.1227 8.02226C11.1495 8.02591 11.1763 8.03 11.203 8.03455C11.2297 8.03911 11.2563 8.04411 11.2829 8.04955C11.3094 8.05499 11.3358 8.06088 11.3622 8.06723C11.3885 8.07357 11.4147 8.08035 11.4408 8.08758C11.4669 8.0948 11.4929 8.10247 11.5187 8.11058C11.5446 8.11868 11.5703 8.12721 11.5958 8.13618C11.6214 8.14516 11.6468 8.15457 11.672 8.16439C11.6972 8.17422 11.7223 8.18447 11.7472 8.19514C11.7721 8.20583 11.7968 8.21692 11.8213 8.22842C11.8458 8.23994 11.8701 8.25187 11.8943 8.2642C11.9184 8.27652 11.9423 8.28925 11.966 8.30239C11.9897 8.31552 12.0131 8.32907 12.0363 8.34301C12.0596 8.35694 12.0825 8.37125 12.1053 8.38596C12.128 8.40067 12.1505 8.41575 12.1728 8.43121C12.195 8.44668 12.217 8.46252 12.2387 8.47873C12.2604 8.49493 12.2818 8.5115 12.3029 8.52844C12.3241 8.54537 12.3449 8.56266 12.3655 8.5803C12.386 8.59793 12.4063 8.61591 12.4262 8.63423C12.4462 8.65255 12.4658 8.67119 12.4851 8.69018C12.5044 8.70916 12.5234 8.72847 12.5421 8.74809C12.5608 8.76772 12.5791 8.78765 12.5971 8.8079C12.6151 8.82814 12.6327 8.84868 12.65 8.86951C12.6673 8.89036 12.6843 8.91149 12.7009 8.9329C12.7174 8.95431 12.7337 8.97599 12.7495 8.99795C12.7654 9.01991 12.7809 9.04213 12.796 9.06462C12.8111 9.0871 12.8258 9.10983 12.8401 9.13281C12.8544 9.15579 12.8684 9.179 12.882 9.20245C12.8955 9.22591 12.9087 9.24958 12.9214 9.27347C12.9342 9.29736 12.9465 9.32147 12.9584 9.34579C12.9704 9.37009 12.9819 9.3946 12.993 9.41931C13.0041 9.444 13.0148 9.46888 13.0251 9.49395C13.0353 9.51901 13.0452 9.54423 13.0546 9.56962C13.064 9.59503 13.073 9.62057 13.0816 9.64626C13.0901 9.67196 13.0982 9.6978 13.106 9.72378C13.1136 9.74975 13.1209 9.77584 13.1277 9.80205C13.1345 9.82827 13.1408 9.8546 13.1467 9.88104C13.1526 9.90746 13.1581 9.93399 13.1631 9.96061C13.1681 9.98722 13.1727 10.0139 13.1768 10.0407C13.1809 10.0675 13.1846 10.0943 13.1878 10.1212C13.191 10.1481 13.1938 10.175 13.1961 10.202C13.1984 10.229 13.2002 10.256 13.2016 10.283C13.203 10.3101 13.2039 10.3372 13.2044 10.3642C13.2048 10.3913 13.2049 10.4184 13.2044 10.4455C13.204 10.4726 13.2031 10.4996 13.2017 10.5267C13.2004 10.5537 13.1986 10.5807 13.1963 10.6078C13.194 10.6347 13.1913 10.6617 13.1881 10.6886C13.1849 10.7155 13.1813 10.7423 13.1772 10.7691C13.1731 10.7959 13.1686 10.8226 13.1636 10.8492C13.1586 10.8758 13.1532 10.9023 13.1473 10.9288C13.1414 10.9552 13.1351 10.9815 13.1283 11.0078C13.1215 11.034 13.1143 11.0601 13.1067 11.0861C13.099 11.1121 13.0909 11.1379 13.0824 11.1636C13.0739 11.1893 13.0649 11.2149 13.0555 11.2403C13.0461 11.2657 13.0363 11.2909 13.0261 11.316C13.0158 11.3411 13.0052 11.366 12.9941 11.3907C12.983 11.4154 12.9715 11.4399 12.9596 11.4642C12.9477 11.4885 12.9354 11.5127 12.9227 11.5366C12.9099 11.5605 12.8968 11.5842 12.8833 11.6076C12.8697 11.6311 12.8558 11.6543 12.8415 11.6773C12.8272 11.7003 12.8125 11.7231 12.7974 11.7456L13.9287 12.8974C13.9672 12.8715 14.0061 12.8462 14.0455 12.8216C14.0849 12.7971 14.1248 12.7733 14.1651 12.7503C14.2054 12.7272 14.2461 12.7049 14.2872 12.6834C14.3284 12.6618 14.3699 12.6411 14.4118 12.6211C14.4537 12.6011 14.4959 12.5819 14.5385 12.5635C14.5812 12.5451 14.6241 12.5274 14.6674 12.5106C14.7107 12.4938 14.7542 12.4778 14.7981 12.4626C14.842 12.4474 14.8861 12.433 14.9305 12.4195C14.9749 12.4059 15.0195 12.3932 15.0644 12.3813C15.1093 12.3694 15.1544 12.3583 15.1997 12.3481C15.245 12.3379 15.2904 12.3286 15.3361 12.32C15.3817 12.3115 15.4275 12.3038 15.4734 12.297C15.5193 12.2902 15.5654 12.2843 15.6115 12.2792C15.6576 12.2741 15.7039 12.2698 15.7502 12.2664C15.7965 12.263 15.8428 12.2605 15.8892 12.2589C15.9356 12.2572 15.982 12.2564 16.0285 12.2565C16.8129 12.2565 17.5413 12.4972 18.144 12.9084L19.4117 11.7552C18.9124 10.6781 19.2734 9.39781 20.2618 8.74029C21.2504 8.08263 22.5707 8.24465 23.3712 9.12148C24.1715 9.99834 24.2125 11.3279 23.4677 12.2525C22.7229 13.1771 21.415 13.4201 20.3879 12.8247L19.1621 13.9395C19.1874 13.9777 19.212 14.0163 19.236 14.0554C19.2599 14.0945 19.2831 14.134 19.3056 14.1739C19.328 14.2138 19.3498 14.2541 19.3707 14.2948C19.3917 14.3356 19.412 14.3767 19.4315 14.4181C19.4509 14.4596 19.4696 14.5014 19.4876 14.5436C19.5055 14.5857 19.5227 14.6282 19.5391 14.671C19.5555 14.7137 19.5711 14.7568 19.5859 14.8002C19.6007 14.8435 19.6147 14.8871 19.6279 14.931C19.6411 14.9749 19.6535 15.019 19.6651 15.0633C19.6766 15.1076 19.6874 15.1522 19.6973 15.1969C19.7073 15.2416 19.7164 15.2865 19.7247 15.3316C19.733 15.3766 19.7405 15.4218 19.7471 15.4671C19.7537 15.5125 19.7595 15.5579 19.7645 15.6035C19.7694 15.649 19.7736 15.6946 19.7769 15.7403C19.7802 15.786 19.7826 15.8318 19.7842 15.8776C19.7858 15.9233 19.7866 15.9691 19.7865 16.0149C19.7866 16.0589 19.7859 16.1028 19.7844 16.1466C19.7829 16.1905 19.7807 16.2344 19.7776 16.2782C19.7746 16.322 19.7708 16.3657 19.7663 16.4094C19.7617 16.4531 19.7564 16.4967 19.7503 16.5402C19.7442 16.5836 19.7373 16.627 19.7297 16.6703C19.7221 16.7135 19.7137 16.7566 19.7046 16.7996C19.6954 16.8425 19.6855 16.8853 19.6749 16.9279C19.6642 16.9705 19.6528 17.0129 19.6407 17.0551C19.6286 17.0973 19.6157 17.1392 19.602 17.181C19.5884 17.2227 19.5741 17.2642 19.559 17.3055C19.5439 17.3467 19.5281 17.3877 19.5116 17.4284C19.4951 17.4691 19.4778 17.5094 19.4599 17.5495C19.442 17.5896 19.4233 17.6293 19.404 17.6688C19.3846 17.7082 19.3646 17.7473 19.3439 17.786C19.3231 17.8247 19.3017 17.863 19.2797 17.901C19.2576 17.9389 19.2349 17.9765 19.2115 18.0137L20.6295 19.2775C20.6656 19.26 20.7021 19.2436 20.7391 19.2282C20.7761 19.2128 20.8136 19.1985 20.8514 19.1853C20.8893 19.1721 20.9275 19.16 20.966 19.149C21.0046 19.138 21.0434 19.1282 21.0825 19.1194C21.1217 19.1107 21.161 19.1031 21.2006 19.0966C21.2401 19.0902 21.2799 19.0849 21.3197 19.0807C21.3596 19.0766 21.3996 19.0736 21.4396 19.0717C21.4796 19.0699 21.5197 19.0692 21.5598 19.0697C21.5999 19.0702 21.6399 19.0719 21.6799 19.0747C21.7199 19.0775 21.7598 19.0815 21.7995 19.0866C21.8393 19.0918 21.8789 19.0981 21.9183 19.1055C21.9576 19.1129 21.9968 19.1215 22.0357 19.1312C22.0746 19.1409 22.1132 19.1517 22.1514 19.1636C22.1897 19.1756 22.2276 19.1886 22.2651 19.2027C22.3026 19.2169 22.3397 19.2321 22.3763 19.2484C22.4129 19.2646 22.4491 19.282 22.4847 19.3004C22.5203 19.3188 22.5554 19.3382 22.5899 19.3586C22.6244 19.379 22.6583 19.4004 22.6915 19.4228C22.7248 19.4452 22.7573 19.4685 22.7893 19.4928C22.8211 19.517 22.8523 19.5422 22.8828 19.5683C22.9132 19.5944 22.9429 19.6213 22.9717 19.6491C23.0006 19.6769 23.0287 19.7056 23.0559 19.735C23.0831 19.7644 23.1094 19.7946 23.1349 19.8256C23.1604 19.8565 23.1849 19.8882 23.2085 19.9206C23.2322 19.953 23.2548 19.986 23.2765 20.0197C23.2982 20.0534 23.319 20.0877 23.3387 20.1226C23.3584 20.1575 23.3771 20.193 23.3948 20.229C23.4124 20.265 23.429 20.3014 23.4446 20.3384C23.4601 20.3753 23.4746 20.4127 23.488 20.4505C23.5013 20.4883 23.5136 20.5264 23.5248 20.5649C23.5359 20.6034 23.546 20.6422 23.5549 20.6813C23.5638 20.7204 23.5716 20.7597 23.5782 20.7992C23.5848 20.8388 23.5903 20.8785 23.5946 20.9183C23.5989 20.9582 23.6021 20.9981 23.6041 21.0382C23.6061 21.0782 23.607 21.1183 23.6067 21.1583C23.6064 21.1984 23.6049 21.2385 23.6022 21.2785C23.5996 21.3185 23.5958 21.3584 23.5909 21.3982C23.5859 21.4379 23.5798 21.4775 23.5725 21.517C23.5653 21.5564 23.5569 21.5956 23.5474 21.6345C23.5378 21.6735 23.5272 21.7121 23.5154 21.7504C23.5037 21.7887 23.4908 21.8267 23.4768 21.8642C23.4629 21.9018 23.4478 21.939 23.4317 21.9757C23.4156 22.0124 23.3984 22.0486 23.3802 22.0843C23.362 22.12 23.3427 22.1551 23.3224 22.1897C23.3022 22.2243 23.2809 22.2583 23.2587 22.2916C23.2364 22.325 23.2133 22.3577 23.1891 22.3897C23.165 22.4217 23.14 22.453 23.114 22.4835C23.0881 22.5141 23.0613 22.5438 23.0336 22.5728C23.0059 22.6019 22.9774 22.63 22.9481 22.6574C22.9188 22.6847 22.8887 22.7112 22.8579 22.7368C22.827 22.7624 22.7954 22.7871 22.7632 22.8109C22.7309 22.8346 22.6979 22.8574 22.6643 22.8793C22.6307 22.9012 22.5965 22.922 22.5617 22.9419C22.5269 22.9618 22.4915 22.9806 22.4556 22.9984C22.4197 23.0163 22.3833 23.033 22.3464 23.0487C22.3096 23.0644 22.2723 23.0791 22.2345 23.0926C22.1968 23.1062 22.1587 23.1186 22.1203 23.1299C22.0818 23.1413 22.0431 23.1515 22.004 23.1606C21.965 23.1697 21.9257 23.1776 21.8862 23.1844C21.8467 23.1912 21.807 23.1969 21.7672 23.2014C21.7273 23.2059 21.6874 23.2092 21.6474 23.2114C21.6074 23.2136 21.5673 23.2146 21.5272 23.2145C21.4871 23.2144 21.4471 23.2131 21.4071 23.2106C21.3671 23.2081 21.3271 23.2045 21.2874 23.1998C21.2475 23.195 21.2079 23.189 21.1685 23.182C21.129 23.1749 21.0898 23.1667 21.0508 23.1573C21.0118 23.148 20.9731 23.1375 20.9348 23.1259C20.8964 23.1143 20.8584 23.1016 20.8208 23.0878C20.7831 23.074 20.7459 23.0591 20.7091 23.0432C20.6724 23.0272 20.6361 23.0102 20.6003 22.9921C20.5645 22.9741 20.5293 22.955 20.4946 22.9349C20.4599 22.9147 20.4258 22.8937 20.3924 22.8716C20.3589 22.8495 20.3261 22.8264 20.2941 22.8025C20.2619 22.7785 20.2305 22.7536 20.1999 22.7277C20.1692 22.7019 20.1393 22.6753 20.1102 22.6477C20.081 22.6202 20.0527 22.5918 20.0253 22.5626C19.9978 22.5334 19.9712 22.5035 19.9454 22.4727C19.9197 22.442 19.8949 22.4105 19.871 22.3784C19.847 22.3462 19.8241 22.3134 19.8021 22.2799C19.7801 22.2463 19.759 22.2122 19.739 22.1775C19.719 22.1428 19.7 22.1075 19.682 22.0717C19.664 22.0358 19.6471 21.9995 19.6312 21.9627C19.6153 21.9259 19.6006 21.8887 19.5868 21.851C19.5731 21.8133 19.5605 21.7753 19.549 21.7369C19.5375 21.6985 19.5271 21.6598 19.5179 21.6208C19.5086 21.5818 19.5005 21.5425 19.4935 21.5031C19.4865 21.4636 19.4807 21.424 19.476 21.3841C19.4713 21.3443 19.4678 21.3044 19.4654 21.2644C19.4631 21.2244 19.4618 21.1843 19.4618 21.1442C19.4618 21.1042 19.4629 21.0641 19.4652 21.0241C19.4675 20.984 19.4709 20.9441 19.4755 20.9043C19.4801 20.8645 19.4858 20.8248 19.4927 20.7853C19.4996 20.7458 19.5077 20.7066 19.5169 20.6676C19.526 20.6285 19.5363 20.5898 19.5478 20.5514C19.5592 20.513 19.5717 20.4749 19.5854 20.4372C19.599 20.3995 19.6137 20.3622 19.6295 20.3254L18.2189 19.0689C18.1794 19.0973 18.1393 19.125 18.0986 19.1519C18.058 19.1788 18.0168 19.2049 17.9752 19.2302C17.9335 19.2554 17.8914 19.2799 17.8488 19.3035C17.8062 19.3271 17.7631 19.3499 17.7196 19.3719C17.6761 19.3938 17.6321 19.4149 17.5878 19.4352C17.5435 19.4554 17.4988 19.4748 17.4537 19.4932C17.4086 19.5117 17.3632 19.5293 17.3174 19.546C17.2716 19.5627 17.2256 19.5786 17.1792 19.5935C17.1328 19.6084 17.0861 19.6224 17.0392 19.6355C16.9922 19.6485 16.945 19.6607 16.8976 19.672C16.8502 19.6832 16.8026 19.6935 16.7548 19.7029C16.707 19.7123 16.659 19.7207 16.6108 19.7282C16.5627 19.7357 16.5144 19.7423 16.466 19.7479C16.4176 19.7535 16.3691 19.7582 16.3205 19.7619C16.2719 19.7657 16.2233 19.7684 16.1746 19.7703C16.1259 19.7721 16.0772 19.773 16.0285 19.7729C15.9794 19.773 15.9303 19.7721 15.8812 19.7702C15.8321 19.7684 15.7832 19.7656 15.7342 19.7618C15.6853 19.758 15.6364 19.7533 15.5876 19.7476C15.5389 19.7419 15.4902 19.7352 15.4417 19.7276C15.3932 19.72 15.3449 19.7114 15.2968 19.7019C15.2486 19.6923 15.2006 19.6819 15.1529 19.6705C15.1051 19.6591 15.0576 19.6467 15.0104 19.6334C14.9631 19.6201 14.9161 19.6059 14.8694 19.5908C14.8227 19.5757 14.7763 19.5596 14.7303 19.5427C14.6842 19.5257 14.6385 19.5079 14.5931 19.4891C14.5477 19.4703 14.5027 19.4507 14.4581 19.4302C14.4135 19.4096 14.3694 19.3882 14.3256 19.3659C14.2819 19.3437 14.2386 19.3206 14.1957 19.2966C14.1529 19.2726 14.1105 19.2478 14.0687 19.2222C14.0268 19.1965 13.9855 19.1701 13.9446 19.1428C13.9038 19.1155 13.8635 19.0875 13.8238 19.0586L13.0838 19.6986C13.8063 20.8685 13.5525 22.3923 12.4898 23.2649C11.4272 24.1375 9.88312 24.0899 8.87618 23.1535C7.86936 22.217 7.71002 20.6803 8.50333 19.5573C9.29651 18.4343 10.7981 18.0708 12.0172 18.7066L12.836 17.9987C12.813 17.9618 12.7906 17.9244 12.7689 17.8867C12.7472 17.849 12.7261 17.8108 12.7057 17.7724C12.6853 17.7339 12.6656 17.6951 12.6466 17.6559C12.6275 17.6167 12.6091 17.5772 12.5915 17.5374C12.5738 17.4976 12.5568 17.4575 12.5406 17.4171C12.5243 17.3767 12.5088 17.3361 12.4939 17.2951C12.4791 17.2542 12.465 17.213 12.4516 17.1715C12.4382 17.1301 12.4255 17.0885 12.4136 17.0466C12.4016 17.0047 12.3904 16.9626 12.3799 16.9204C12.3694 16.8781 12.3597 16.8356 12.3507 16.793C12.3417 16.7504 12.3334 16.7077 12.3259 16.6648C12.3184 16.6219 12.3117 16.5789 12.3057 16.5357C12.2997 16.4926 12.2944 16.4494 12.2899 16.406C12.2854 16.3627 12.2817 16.3193 12.2787 16.2759C12.2758 16.2324 12.2736 16.189 12.2721 16.1454C12.2706 16.1019 12.2699 16.0584 12.27 16.0148C12.27 15.2404 12.5043 14.5206 12.9058 13.9225L11.6597 12.6532C11.6187 12.6688 11.5772 12.6834 11.5354 12.6967C11.4936 12.7102 11.4514 12.7224 11.4089 12.7335C11.3664 12.7446 11.3236 12.7545 11.2806 12.7632C11.2375 12.772 11.1942 12.7795 11.1508 12.7859C11.1073 12.7923 11.0637 12.7974 11.02 12.8014C10.9762 12.8054 10.9324 12.8082 10.8885 12.8098C10.8446 12.8114 10.8007 12.8117 10.7568 12.8109C10.7129 12.8101 10.669 12.8081 10.6252 12.8048C10.5814 12.8016 10.5377 12.7972 10.4941 12.7916C10.4506 12.786 10.4072 12.7792 10.364 12.7712C10.3208 12.7632 10.2778 12.754 10.2351 12.7436C10.1925 12.7333 10.1501 12.7218 10.108 12.7091C10.066 12.6964 10.0243 12.6826 9.98297 12.6677C9.94166 12.6527 9.9008 12.6367 9.86038 12.6195C9.81996 12.6023 9.78003 12.584 9.74061 12.5646C9.70118 12.5452 9.66231 12.5248 9.62401 12.5033C9.58571 12.4818 9.54803 12.4593 9.51096 12.4357C9.47389 12.4121 9.4375 12.3875 9.40178 12.362C9.36606 12.3364 9.33106 12.3099 9.29679 12.2824C9.26253 12.2549 9.22903 12.2265 9.19631 12.1972C9.16359 12.1679 9.13171 12.1377 9.10065 12.1066C9.0696 12.0756 9.03941 12.0437 9.01009 12.011C8.98078 11.9783 8.95239 11.9448 8.92491 11.9105C8.89742 11.8762 8.87091 11.8412 8.84536 11.8055C8.81979 11.7698 8.79522 11.7334 8.77165 11.6963C8.74809 11.6592 8.72555 11.6215 8.70405 11.5832C8.68254 11.5449 8.6621 11.5061 8.64273 11.4666C8.62336 11.4272 8.60508 11.3873 8.58789 11.3469C8.57071 11.3064 8.55464 11.2656 8.53969 11.2243C8.52474 11.1829 8.51094 11.1413 8.49829 11.0992C8.48562 11.0571 8.47411 11.0148 8.46378 10.9721C8.45343 10.9294 8.44426 10.8864 8.43627 10.8432C8.42828 10.8 8.42147 10.7567 8.41586 10.7131C8.41025 10.6695 8.40584 10.6259 8.40261 10.582C8.39939 10.5382 8.39737 10.4944 8.39655 10.4504C8.39573 10.4065 8.39612 10.3626 8.39772 10.3187C8.3993 10.2748 8.40209 10.231 8.40608 10.1872C8.41007 10.1435 8.41525 10.0999 8.42163 10.0564C8.428 10.013 8.43556 9.96972 8.44431 9.92667C8.45305 9.88362 8.46297 9.84084 8.47405 9.79833C8.48515 9.75583 8.4974 9.71366 8.51079 9.67182C8.5242 9.62999 8.53874 9.58856 8.55441 9.54752C8.57007 9.50649 8.58685 9.46591 8.60475 9.42578C8.62264 9.38567 8.64162 9.34607 8.66168 9.30699C8.68174 9.26792 8.70286 9.22941 8.72502 9.19149C8.74719 9.15356 8.77039 9.11628 8.7946 9.07964C8.81881 9.04298 8.84401 9.00702 8.87019 8.97175C8.89637 8.93648 8.92351 8.90195 8.95159 8.86817C8.97967 8.83438 9.00864 8.80139 9.03853 8.76919C9.06841 8.73699 9.09915 8.70563 9.13075 8.67511C9.16235 8.6446 9.19476 8.61497 9.22798 8.58623C9.2612 8.5575 9.29518 8.5297 9.32993 8.50282C9.36468 8.47594 9.40014 8.45003 9.43629 8.42509C9.47246 8.40016 9.50928 8.37623 9.54675 8.35332C9.58424 8.33041 9.62232 8.30854 9.66099 8.28771C9.69966 8.26687 9.73887 8.24711 9.77864 8.22842C9.81838 8.20975 9.85862 8.19217 9.89935 8.17568C9.94007 8.1592 9.9812 8.14385 10.0228 8.12963C10.0643 8.1154 10.1062 8.10232 10.1485 8.09039C10.1908 8.07846 10.2334 8.0677 10.2762 8.05812C10.3191 8.04852 10.3622 8.0401 10.4055 8.03286C10.4488 8.02562 10.4923 8.01957 10.536 8.01472C10.5797 8.00987 10.6234 8.00621 10.6673 8.00376C10.7111 8.00131 10.755 8.00005 10.799 8L10.7987 8.00038ZM10.7466 19.8434C10.0292 19.8434 9.44761 20.425 9.44761 21.1424C9.44761 21.8596 10.0293 22.4412 10.7466 22.4412C11.464 22.4412 12.0456 21.8596 12.0456 21.1423C12.0456 20.425 11.4638 19.8434 10.7466 19.8434ZM21.5349 20.5174C21.5247 20.5174 21.5145 20.5177 21.5043 20.5182C21.494 20.5187 21.4838 20.5194 21.4737 20.5204C21.4635 20.5214 21.4533 20.5227 21.4432 20.5242C21.4331 20.5257 21.423 20.5274 21.413 20.5294C21.403 20.5314 21.393 20.5336 21.3831 20.5361C21.3732 20.5386 21.3633 20.5413 21.3536 20.5443C21.3438 20.5473 21.3341 20.5505 21.3244 20.5539C21.3148 20.5574 21.3053 20.5611 21.2958 20.565C21.2864 20.5689 21.277 20.573 21.2678 20.5774C21.2586 20.5817 21.2494 20.5864 21.2404 20.5912C21.2314 20.596 21.2225 20.601 21.2137 20.6063C21.205 20.6115 21.1963 20.617 21.1878 20.6227C21.1793 20.6284 21.171 20.6343 21.1628 20.6403C21.1546 20.6464 21.1465 20.6527 21.1386 20.6592C21.1307 20.6657 21.1229 20.6724 21.1154 20.6792C21.1078 20.6861 21.1004 20.6932 21.0932 20.7004C21.0859 20.7076 21.0789 20.715 21.072 20.7226C21.0652 20.7302 21.0585 20.7379 21.052 20.7458C21.0455 20.7537 21.0392 20.7618 21.0331 20.77C21.027 20.7782 21.0212 20.7865 21.0155 20.795C21.0098 20.8036 21.0043 20.8122 20.9991 20.8209C20.9938 20.8297 20.9888 20.8386 20.984 20.8476C20.9791 20.8567 20.9745 20.8658 20.9702 20.875C20.9658 20.8843 20.9616 20.8936 20.9577 20.9031C20.9538 20.9125 20.9501 20.922 20.9467 20.9317C20.9432 20.9413 20.9401 20.951 20.9371 20.9608C20.9341 20.9706 20.9314 20.9804 20.9289 20.9903C20.9264 21.0002 20.9242 21.0102 20.9222 21.0203C20.9202 21.0303 20.9185 21.0403 20.917 21.0505C20.9155 21.0606 20.9142 21.0707 20.9132 21.0809C20.9122 21.0911 20.9114 21.1013 20.911 21.1115C20.9104 21.1217 20.9102 21.1319 20.9102 21.1421C20.9102 21.1524 20.9104 21.1626 20.911 21.1728C20.9114 21.183 20.9122 21.1932 20.9132 21.2034C20.9142 21.2135 20.9155 21.2237 20.917 21.2338C20.9185 21.2439 20.9202 21.254 20.9222 21.264C20.9242 21.274 20.9264 21.284 20.9289 21.2939C20.9314 21.3038 20.9341 21.3137 20.9371 21.3235C20.9401 21.3333 20.9432 21.343 20.9467 21.3526C20.9501 21.3622 20.9538 21.3717 20.9577 21.3812C20.9616 21.3906 20.9658 21.4 20.9702 21.4092C20.9745 21.4185 20.9791 21.4276 20.9839 21.4366C20.9888 21.4456 20.9938 21.4545 20.9991 21.4633C21.0043 21.4721 21.0098 21.4807 21.0155 21.4892C21.0212 21.4977 21.027 21.5061 21.0331 21.5143C21.0392 21.5225 21.0455 21.5305 21.052 21.5384C21.0585 21.5463 21.0652 21.5541 21.072 21.5617C21.0789 21.5692 21.0859 21.5766 21.0932 21.5839C21.1004 21.5911 21.1078 21.5981 21.1154 21.605C21.1229 21.6119 21.1307 21.6186 21.1386 21.625C21.1465 21.6315 21.1546 21.6378 21.1628 21.6439C21.171 21.65 21.1793 21.6559 21.1878 21.6615C21.1963 21.6672 21.205 21.6727 21.2137 21.678C21.2225 21.6832 21.2314 21.6883 21.2404 21.6931C21.2494 21.6979 21.2586 21.7025 21.2678 21.7069C21.277 21.7112 21.2864 21.7154 21.2958 21.7193C21.3053 21.7232 21.3148 21.7269 21.3244 21.7303C21.3341 21.7338 21.3438 21.737 21.3536 21.7399C21.3633 21.7429 21.3732 21.7456 21.3831 21.7481C21.393 21.7506 21.403 21.7528 21.413 21.7548C21.423 21.7568 21.4331 21.7586 21.4432 21.7601C21.4533 21.7616 21.4635 21.7628 21.4737 21.7638C21.4838 21.7648 21.494 21.7656 21.5043 21.7661C21.5145 21.7666 21.5247 21.7668 21.5349 21.7668C21.5451 21.7668 21.5553 21.7666 21.5656 21.7661C21.5758 21.7656 21.586 21.7648 21.5961 21.7638C21.6063 21.7628 21.6165 21.7616 21.6266 21.7601C21.6367 21.7586 21.6468 21.7568 21.6568 21.7548C21.6668 21.7528 21.6768 21.7506 21.6867 21.7481C21.6966 21.7456 21.7065 21.7429 21.7163 21.7399C21.726 21.737 21.7357 21.7338 21.7454 21.7303C21.755 21.7269 21.7645 21.7232 21.774 21.7193C21.7834 21.7154 21.7928 21.7112 21.802 21.7069C21.8113 21.7025 21.8204 21.6979 21.8294 21.6931C21.8384 21.6883 21.8473 21.6832 21.8561 21.678C21.8648 21.6727 21.8735 21.6672 21.882 21.6615C21.8905 21.6559 21.8988 21.65 21.9071 21.6439C21.9153 21.6378 21.9233 21.6315 21.9312 21.625C21.9391 21.6186 21.9468 21.6119 21.9544 21.605C21.962 21.5981 21.9694 21.5911 21.9767 21.5839C21.9839 21.5766 21.9909 21.5692 21.9978 21.5617C22.0046 21.5541 22.0113 21.5463 22.0178 21.5384C22.0243 21.5305 22.0306 21.5225 22.0367 21.5143C22.0428 21.506 22.0486 21.4977 22.0543 21.4892C22.06 21.4807 22.0655 21.4721 22.0707 21.4633C22.076 21.4545 22.081 21.4456 22.0858 21.4366C22.0907 21.4276 22.0953 21.4185 22.0996 21.4092C22.104 21.4 22.1081 21.3906 22.1121 21.3812C22.116 21.3717 22.1196 21.3622 22.1231 21.3526C22.1265 21.343 22.1297 21.3333 22.1327 21.3235C22.1357 21.3137 22.1384 21.3038 22.1409 21.2939C22.1434 21.284 22.1456 21.274 22.1476 21.264C22.1496 21.254 22.1513 21.2439 22.1529 21.2338C22.1543 21.2237 22.1556 21.2135 22.1566 21.2034C22.1576 21.1932 22.1584 21.183 22.1589 21.1728C22.1594 21.1626 22.1596 21.1524 22.1596 21.1421C22.1596 21.1319 22.1594 21.1217 22.1589 21.1115C22.1584 21.1013 22.1576 21.0911 22.1566 21.0809C22.1556 21.0707 22.1543 21.0606 22.1529 21.0505C22.1513 21.0403 22.1496 21.0303 22.1476 21.0203C22.1456 21.0102 22.1434 21.0002 22.1409 20.9903C22.1384 20.9804 22.1357 20.9706 22.1327 20.9608C22.1297 20.951 22.1265 20.9413 22.1231 20.9317C22.1196 20.922 22.116 20.9125 22.1121 20.9031C22.1081 20.8936 22.104 20.8843 22.0996 20.875C22.0953 20.8658 22.0907 20.8567 22.0858 20.8476C22.081 20.8386 22.076 20.8297 22.0707 20.8209C22.0655 20.8122 22.06 20.8036 22.0543 20.795C22.0486 20.7865 22.0428 20.7782 22.0367 20.77C22.0306 20.7618 22.0243 20.7537 22.0178 20.7458C22.0113 20.7379 22.0046 20.7302 21.9978 20.7226C21.9909 20.715 21.9839 20.7076 21.9767 20.7004C21.9694 20.6932 21.962 20.6861 21.9544 20.6792C21.9468 20.6724 21.9391 20.6657 21.9312 20.6592C21.9233 20.6527 21.9153 20.6464 21.9071 20.6403C21.8988 20.6343 21.8905 20.6284 21.882 20.6227C21.8735 20.617 21.8648 20.6115 21.8561 20.6063C21.8473 20.601 21.8384 20.596 21.8294 20.5912C21.8204 20.5864 21.8113 20.5817 21.802 20.5774C21.7928 20.573 21.7834 20.5689 21.774 20.565C21.7645 20.5611 21.755 20.5574 21.7454 20.5539C21.7357 20.5505 21.726 20.5473 21.7163 20.5443C21.7065 20.5413 21.6966 20.5386 21.6867 20.5361C21.6768 20.5336 21.6668 20.5314 21.6568 20.5294C21.6467 20.5274 21.6367 20.5257 21.6266 20.5242C21.6165 20.5227 21.6063 20.5214 21.5961 20.5204C21.586 20.5194 21.5758 20.5187 21.5656 20.5182C21.5553 20.5177 21.5451 20.5174 21.5349 20.5174ZM16.0285 13.7044C14.7525 13.7044 13.7182 14.7388 13.7182 16.0147C13.7182 17.2906 14.7525 18.325 16.0285 18.325C17.3044 18.325 18.3386 17.2908 18.3386 16.0148C18.3386 14.739 17.3044 13.7047 16.0285 13.7047L16.0285 13.7044ZM21.5948 9.78546C21.5792 9.78563 21.5636 9.78619 21.5481 9.78713C21.5326 9.78807 21.5171 9.78939 21.5016 9.79109C21.4861 9.79278 21.4707 9.79484 21.4554 9.79728C21.44 9.79974 21.4247 9.80256 21.4095 9.80575C21.3942 9.80894 21.3791 9.8125 21.364 9.81643C21.349 9.82035 21.334 9.82465 21.3192 9.8293C21.3043 9.83396 21.2896 9.83898 21.275 9.84436C21.2604 9.84972 21.2459 9.85545 21.2316 9.86153C21.2173 9.86762 21.2031 9.87405 21.1891 9.88082C21.1751 9.88759 21.1612 9.89469 21.1476 9.90213C21.1339 9.90957 21.1204 9.91734 21.1072 9.92544C21.0939 9.93355 21.0808 9.94198 21.0679 9.95072C21.055 9.95945 21.0424 9.96849 21.0299 9.97785C21.0175 9.9872 21.0053 9.99686 20.9933 10.0068C20.9814 10.0168 20.9697 10.027 20.9582 10.0375C20.9467 10.048 20.9355 10.0588 20.9246 10.0699C20.9136 10.081 20.903 10.0923 20.8926 10.1039C20.8822 10.1155 20.8721 10.1273 20.8623 10.1394C20.8525 10.1515 20.843 10.1638 20.8338 10.1763C20.8246 10.1889 20.8157 10.2016 20.8071 10.2146C20.7985 10.2276 20.7902 10.2408 20.7823 10.2541C20.7743 10.2675 20.7667 10.2811 20.7594 10.2948C20.7521 10.3086 20.7452 10.3225 20.7386 10.3366C20.732 10.3507 20.7257 10.3649 20.7198 10.3793C20.7139 10.3937 20.7083 10.4082 20.7031 10.4229C20.6979 10.4375 20.6931 10.4523 20.6886 10.4672C20.6841 10.4821 20.68 10.4971 20.6762 10.5122C20.6725 10.5273 20.6691 10.5425 20.6661 10.5578C20.6631 10.5731 20.6604 10.5884 20.6582 10.6038C20.6559 10.6192 20.654 10.6346 20.6525 10.6501C20.651 10.6656 20.6498 10.6811 20.6491 10.6967C20.6483 10.7122 20.6479 10.7277 20.6479 10.7433C20.6479 10.7589 20.6483 10.7744 20.6491 10.79C20.6498 10.8055 20.651 10.821 20.6525 10.8365C20.654 10.852 20.6559 10.8674 20.6582 10.8828C20.6604 10.8982 20.6631 10.9136 20.6661 10.9288C20.6691 10.9441 20.6725 10.9593 20.6762 10.9744C20.68 10.9895 20.6841 11.0045 20.6886 11.0194C20.6931 11.0343 20.6979 11.0491 20.7031 11.0637C20.7083 11.0784 20.7139 11.0929 20.7198 11.1073C20.7257 11.1217 20.732 11.136 20.7386 11.15C20.7452 11.1641 20.7521 11.1781 20.7594 11.1918C20.7667 11.2055 20.7743 11.2191 20.7823 11.2325C20.7902 11.2459 20.7985 11.2591 20.8071 11.272C20.8157 11.285 20.8246 11.2978 20.8338 11.3103C20.843 11.3228 20.8525 11.3352 20.8623 11.3472C20.8721 11.3593 20.8822 11.3712 20.8926 11.3828C20.903 11.3943 20.9136 11.4057 20.9246 11.4167C20.9355 11.4278 20.9467 11.4386 20.9582 11.4491C20.9697 11.4596 20.9814 11.4699 20.9933 11.4798C21.0053 11.4898 21.0175 11.4994 21.0299 11.5088C21.0424 11.5181 21.055 11.5272 21.0679 11.5359C21.0808 11.5447 21.0939 11.5531 21.1072 11.5612C21.1204 11.5693 21.1339 11.5771 21.1476 11.5845C21.1612 11.592 21.1751 11.5991 21.1891 11.6058C21.2031 11.6126 21.2173 11.619 21.2316 11.6251C21.2459 11.6312 21.2604 11.6369 21.275 11.6423C21.2896 11.6476 21.3043 11.6527 21.3192 11.6573C21.334 11.662 21.349 11.6663 21.364 11.6702C21.3791 11.6741 21.3942 11.6777 21.4095 11.6809C21.4247 11.6841 21.44 11.6869 21.4554 11.6893C21.4707 11.6918 21.4861 11.6938 21.5016 11.6955C21.5171 11.6972 21.5326 11.6986 21.5481 11.6995C21.5636 11.7004 21.5792 11.701 21.5948 11.7012C21.6105 11.7013 21.6263 11.7011 21.6421 11.7005C21.6579 11.6999 21.6737 11.699 21.6894 11.6976C21.7051 11.6962 21.7208 11.6944 21.7365 11.6923C21.7521 11.6901 21.7677 11.6876 21.7832 11.6847C21.7987 11.6818 21.8142 11.6784 21.8296 11.6747C21.8449 11.6711 21.8602 11.667 21.8753 11.6626C21.8905 11.6581 21.9055 11.6533 21.9204 11.6481C21.9353 11.6429 21.9501 11.6374 21.9648 11.6315C21.9794 11.6255 21.9939 11.6193 22.0082 11.6126C22.0226 11.606 22.0367 11.599 22.0507 11.5917C22.0647 11.5843 22.0785 11.5767 22.0921 11.5686C22.1057 11.5606 22.1191 11.5523 22.1323 11.5436C22.1455 11.5349 22.1585 11.5259 22.1713 11.5166C22.184 11.5073 22.1965 11.4977 22.2088 11.4877C22.2211 11.4778 22.2331 11.4675 22.2449 11.457C22.2566 11.4465 22.2681 11.4356 22.2794 11.4245C22.2906 11.4134 22.3015 11.4021 22.3122 11.3904C22.3229 11.3788 22.3333 11.3669 22.3433 11.3547C22.3534 11.3426 22.3632 11.3302 22.3727 11.3175C22.3821 11.3049 22.3913 11.292 22.4001 11.2789C22.4089 11.2658 22.4174 11.2525 22.4256 11.239C22.4338 11.2255 22.4416 11.2118 22.4491 11.1979C22.4566 11.184 22.4638 11.1699 22.4706 11.1556C22.4774 11.1414 22.4838 11.127 22.4899 11.1124C22.496 11.0978 22.5017 11.0831 22.5071 11.0682C22.5124 11.0534 22.5174 11.0384 22.522 11.0233C22.5267 11.0082 22.5309 10.993 22.5348 10.9776C22.5386 10.9623 22.5421 10.9469 22.5452 10.9315C22.5483 10.916 22.551 10.9004 22.5534 10.8848C22.5557 10.8692 22.5577 10.8535 22.5592 10.8378C22.5608 10.8221 22.5619 10.8063 22.5627 10.7906C22.5635 10.7748 22.5639 10.759 22.5639 10.7432C22.5639 10.7274 22.5635 10.7116 22.5627 10.6958C22.5619 10.68 22.5608 10.6643 22.5592 10.6486C22.5577 10.6329 22.5557 10.6172 22.5534 10.6016C22.551 10.586 22.5483 10.5704 22.5452 10.5549C22.5421 10.5394 22.5386 10.524 22.5348 10.5087C22.5309 10.4934 22.5267 10.4782 22.522 10.4631C22.5174 10.448 22.5124 10.433 22.5071 10.4181C22.5017 10.4033 22.496 10.3886 22.4899 10.374C22.4838 10.3594 22.4774 10.345 22.4706 10.3307C22.4638 10.3165 22.4566 10.3024 22.4491 10.2885C22.4416 10.2746 22.4338 10.2609 22.4256 10.2474C22.4174 10.2339 22.4089 10.2205 22.4001 10.2075C22.3913 10.1944 22.3821 10.1815 22.3727 10.1689C22.3632 10.1562 22.3534 10.1438 22.3433 10.1317C22.3333 10.1195 22.3229 10.1076 22.3122 10.0959C22.3015 10.0843 22.2906 10.0729 22.2794 10.0618C22.2681 10.0507 22.2566 10.0399 22.2449 10.0294C22.2331 10.0188 22.2211 10.0086 22.2088 9.99866C22.1965 9.98871 22.184 9.97908 22.1713 9.96976C22.1585 9.96045 22.1455 9.95144 22.1323 9.94275C22.1191 9.93408 22.1057 9.92574 22.0921 9.91772C22.0785 9.9097 22.0647 9.90203 22.0507 9.89469C22.0367 9.88736 22.0226 9.88038 22.0082 9.87374C21.9939 9.8671 21.9794 9.86083 21.9648 9.85492C21.9501 9.84899 21.9353 9.84343 21.9204 9.83825C21.9055 9.83307 21.8905 9.82826 21.8753 9.82381C21.8602 9.81937 21.8449 9.81531 21.8296 9.81162C21.8142 9.80794 21.7987 9.80463 21.7832 9.80171C21.7677 9.79877 21.7521 9.79623 21.7365 9.79409C21.7208 9.79193 21.7051 9.79016 21.6894 9.78878C21.6737 9.78741 21.6579 9.78642 21.6421 9.78582C21.6263 9.78523 21.6105 9.78502 21.5948 9.7852L21.5948 9.78546ZM10.7987 9.44826C10.7829 9.44808 10.7671 9.44828 10.7514 9.44889C10.7356 9.44948 10.7198 9.45046 10.7041 9.45184C10.6884 9.45322 10.6727 9.45499 10.657 9.45715C10.6414 9.4593 10.6258 9.46183 10.6103 9.46475C10.5947 9.46768 10.5793 9.47098 10.564 9.47467C10.5486 9.47835 10.5333 9.48242 10.5182 9.48687C10.503 9.49131 10.488 9.49612 10.4731 9.50131C10.4582 9.5065 10.4434 9.51205 10.4287 9.51796C10.4141 9.52388 10.3996 9.53015 10.3853 9.53679C10.3709 9.54342 10.3568 9.55041 10.3428 9.55774C10.3288 9.56507 10.315 9.57275 10.3014 9.58076C10.2878 9.58878 10.2744 9.59713 10.2612 9.6058C10.248 9.61447 10.235 9.62348 10.2223 9.63281C10.2095 9.64212 10.197 9.65175 10.1848 9.66168C10.1725 9.67163 10.1604 9.68187 10.1487 9.69239C10.1369 9.70293 10.1254 9.71375 10.1142 9.72485C10.1029 9.73595 10.092 9.74732 10.0813 9.75898C10.0707 9.77061 10.0603 9.78251 10.0502 9.79467C10.0401 9.80683 10.0304 9.81923 10.0209 9.83187C10.0114 9.84451 10.0023 9.85738 9.99344 9.87046C9.98461 9.88356 9.9761 9.89687 9.96793 9.91038C9.95976 9.92389 9.95193 9.9376 9.94444 9.9515C9.93694 9.9654 9.9298 9.97948 9.923 9.99373C9.91619 10.008 9.90974 10.0224 9.90366 10.037C9.89757 10.0515 9.89185 10.0662 9.8865 10.0811C9.88114 10.096 9.87615 10.111 9.87154 10.1261C9.86691 10.1412 9.86267 10.1564 9.85881 10.1717C9.85495 10.187 9.85146 10.2024 9.84835 10.2179C9.84526 10.2334 9.84254 10.2489 9.84021 10.2645C9.83786 10.2802 9.83591 10.2958 9.83436 10.3115C9.8328 10.3272 9.83164 10.343 9.83086 10.3588C9.83007 10.3745 9.82967 10.3903 9.82967 10.4061C9.82967 10.4219 9.83007 10.4377 9.83086 10.4535C9.83164 10.4692 9.8328 10.485 9.83436 10.5007C9.83591 10.5164 9.83786 10.5321 9.84021 10.5477C9.84254 10.5633 9.84526 10.5789 9.84835 10.5944C9.85146 10.6098 9.85495 10.6252 9.85881 10.6406C9.86267 10.6559 9.86691 10.6711 9.87154 10.6862C9.87615 10.7013 9.88114 10.7163 9.8865 10.7311C9.89185 10.746 9.89757 10.7607 9.90366 10.7753C9.90974 10.7898 9.91619 10.8042 9.923 10.8185C9.9298 10.8328 9.93694 10.8468 9.94444 10.8607C9.95193 10.8746 9.95976 10.8883 9.96793 10.9019C9.9761 10.9154 9.98461 10.9287 9.99344 10.9418C10.0023 10.9549 10.0114 10.9677 10.0209 10.9804C10.0304 10.993 10.0401 11.0054 10.0502 11.0176C10.0603 11.0297 10.0707 11.0416 10.0813 11.0533C10.092 11.0649 10.1029 11.0763 10.1142 11.0874C10.1254 11.0985 10.1369 11.1093 10.1487 11.1198C10.1604 11.1304 10.1725 11.1406 10.1848 11.1505C10.197 11.1605 10.2095 11.1701 10.2223 11.1794C10.235 11.1888 10.248 11.1978 10.2612 11.2064C10.2744 11.2151 10.2878 11.2234 10.3014 11.2315C10.315 11.2395 10.3288 11.2472 10.3428 11.2545C10.3568 11.2618 10.3709 11.2688 10.3853 11.2754C10.3996 11.2821 10.4141 11.2884 10.4287 11.2943C10.4434 11.3002 10.4582 11.3057 10.4731 11.3109C10.488 11.3161 10.503 11.3209 10.5182 11.3254C10.5333 11.3298 10.5486 11.3339 10.564 11.3376C10.5793 11.3412 10.5947 11.3446 10.6103 11.3475C10.6258 11.3504 10.6414 11.3529 10.657 11.3551C10.6727 11.3572 10.6884 11.359 10.7041 11.3604C10.7198 11.3618 10.7356 11.3627 10.7514 11.3633C10.7671 11.364 10.7829 11.3642 10.7987 11.364C10.8143 11.3638 10.8298 11.3632 10.8453 11.3623C10.8609 11.3614 10.8764 11.3601 10.8919 11.3583C10.9073 11.3567 10.9227 11.3546 10.9381 11.3521C10.9535 11.3497 10.9688 11.3469 10.984 11.3437C10.9992 11.3405 11.0144 11.3369 11.0294 11.333C11.0445 11.3291 11.0595 11.3248 11.0743 11.3201C11.0891 11.3155 11.1039 11.3104 11.1185 11.3051C11.1331 11.2997 11.1475 11.294 11.1619 11.2879C11.1762 11.2818 11.1903 11.2754 11.2044 11.2686C11.2184 11.2618 11.2322 11.2547 11.2459 11.2473C11.2595 11.2399 11.273 11.2321 11.2863 11.224C11.2996 11.2159 11.3127 11.2075 11.3256 11.1987C11.3384 11.19 11.3511 11.1809 11.3635 11.1716C11.376 11.1622 11.3881 11.1526 11.4001 11.1426C11.4121 11.1327 11.4238 11.1224 11.4353 11.1119C11.4467 11.1014 11.4579 11.0906 11.4689 11.0795C11.4798 11.0685 11.4905 11.0571 11.5009 11.0456C11.5112 11.034 11.5213 11.0221 11.5312 11.01C11.541 10.998 11.5505 10.9857 11.5597 10.9731C11.5689 10.9606 11.5778 10.9478 11.5864 10.9348C11.595 10.9219 11.6032 10.9087 11.6112 10.8953C11.6191 10.8819 11.6268 10.8684 11.634 10.8546C11.6413 10.8409 11.6483 10.8269 11.6549 10.8129C11.6615 10.7988 11.6677 10.7845 11.6737 10.7701C11.6796 10.7557 11.6851 10.7412 11.6903 10.7265C11.6955 10.7119 11.7004 10.6971 11.7049 10.6822C11.7093 10.6673 11.7135 10.6523 11.7172 10.6372C11.721 10.6221 11.7244 10.6069 11.7274 10.5916C11.7304 10.5764 11.733 10.561 11.7353 10.5456C11.7376 10.5303 11.7395 10.5148 11.741 10.4993C11.7425 10.4838 11.7436 10.4683 11.7444 10.4528C11.7451 10.4372 11.7455 10.4217 11.7455 10.4061C11.7455 10.3906 11.7451 10.375 11.7444 10.3595C11.7436 10.3439 11.7425 10.3284 11.741 10.3129C11.7395 10.2974 11.7376 10.282 11.7353 10.2666C11.733 10.2512 11.7304 10.2359 11.7274 10.2206C11.7244 10.2053 11.721 10.1901 11.7172 10.175C11.7135 10.1599 11.7093 10.1449 11.7049 10.13C11.7004 10.1151 11.6955 10.1004 11.6903 10.0857C11.6851 10.071 11.6796 10.0565 11.6737 10.0421C11.6677 10.0277 11.6615 10.0135 11.6549 9.99938C11.6483 9.98529 11.6413 9.97137 11.634 9.95762C11.6268 9.94388 11.6191 9.93031 11.6112 9.91693C11.6032 9.90356 11.595 9.89038 11.5864 9.8774C11.5778 9.86442 11.5689 9.85166 11.5597 9.83911C11.5505 9.82658 11.541 9.81427 11.5312 9.80219C11.5213 9.79011 11.5112 9.77827 11.5009 9.76668C11.4905 9.75509 11.4798 9.74377 11.4689 9.73271C11.4579 9.72164 11.4467 9.71084 11.4353 9.70032C11.4238 9.6898 11.4121 9.67957 11.4001 9.66961C11.3881 9.65966 11.376 9.65001 11.3635 9.64065C11.3511 9.63129 11.3384 9.62225 11.3256 9.61352C11.3127 9.60478 11.2996 9.59636 11.2863 9.58825C11.273 9.58015 11.2595 9.57238 11.2459 9.56494C11.2322 9.5575 11.2184 9.55039 11.2044 9.54362C11.1903 9.53685 11.1762 9.53043 11.1619 9.52434C11.1475 9.51826 11.1331 9.51254 11.1185 9.50716C11.1039 9.50179 11.0891 9.49677 11.0743 9.4921C11.0595 9.48745 11.0445 9.48316 11.0294 9.47923C11.0144 9.4753 10.9992 9.47175 10.984 9.46855C10.9688 9.46536 10.9535 9.46254 10.9381 9.46009C10.9227 9.45765 10.9073 9.45558 10.8919 9.45389C10.8764 9.45219 10.8609 9.45087 10.8453 9.44993C10.8298 9.44899 10.8143 9.44844 10.7987 9.44826Z"   fill="#FFFFFF" >
</path>
</svg>
