<svg xmlns="http://www.w3.org/2000/svg" xmlns:xlink="http://www.w3.org/1999/xlink" width="32" height="32" viewBox="0 0 32 32" fill="none">
<rect  x="0" y="0" width="32" height="32" rx="6"    fill="#FF9200" >
</rect>
<path fill-rule="evenodd"  fill="rgba(255, 255, 255, 1)"  d="M16.2 14.72C16.0228 14.3123 12.8042 7.95505 9.62 9.15C6.85394 10.188 7.91012 16.7324 10.68 19.85C13.4499 22.9676 17.6187 22.8051 19.65 21.82C21.5612 20.8931 21.5403 18.9007 21.5311 18.0302C21.5305 17.9755 21.53 17.9253 21.53 17.88C21.53 17.3828 20.8117 17.4972 20.34 17.11C19.8683 16.7228 19.9973 16.07 19.65 16.07C19.5102 16.07 19.3709 16.1863 19.2316 16.3027C19.0249 16.4753 18.8182 16.648 18.61 16.44C18.4783 16.3084 18.3974 16.0304 18.3289 15.7356C18.3201 15.6975 18.3114 15.6592 18.3029 15.6208C18.203 15.1706 18.12 14.72 17.92 14.72C17.6024 14.72 17.6373 15.2663 17.2262 15.3649C17.2228 15.3657 17.2194 15.3665 17.2159 15.3672C17.1779 15.3755 17.1361 15.38 17.09 15.38C16.5323 15.38 16.3772 15.1277 16.2 14.72ZM17.4551 16.3399Q17.2815 16.38 17.09 16.38Q16.3301 16.38 15.8447 15.9562Q15.6343 15.7726 15.476 15.5064Q15.3848 15.3532 15.2829 15.1186Q15.1357 14.78 14.6848 14.0198Q13.9965 12.8593 13.2649 11.9688Q12.3185 10.8168 11.4666 10.3249Q10.627 9.84019 9.97134 10.0862Q9.43801 10.2864 9.18562 11.1133Q8.88321 12.1041 9.06658 13.5983Q9.25351 15.1216 9.87986 16.6241Q10.5237 18.1685 11.4276 19.1858Q12.2858 20.1518 13.4132 20.7179Q14.4201 21.2235 15.5783 21.3828Q16.6161 21.5256 17.6366 21.3767Q18.5462 21.2439 19.2136 20.9202Q20.0663 20.5067 20.3587 19.5977Q20.4756 19.2345 20.5132 18.7773Q20.5287 18.5886 20.5314 18.3158Q20.3664 18.2598 20.2567 18.2126Q19.9428 18.0777 19.7055 17.883Q19.4735 17.6925 19.3057 17.4358Q18.5337 17.7773 17.9032 17.1475Q17.6218 16.8663 17.4612 16.3593Q17.4581 16.3498 17.4551 16.3399ZM20.5301 17.8953L20.53 17.8873L20.5301 17.8953Z">
</path>
<path fill-rule="evenodd"  fill="rgba(255, 255, 255, 1)"  d="M17.3091 14.8027C17.3131 14.8019 17.3171 14.801 17.321 14.8001C17.7327 14.7032 17.6998 14.1566 18.0174 14.1578C18.2187 14.1585 18.2964 14.6119 18.3927 15.0625C18.4011 15.1019 18.4097 15.1413 18.4185 15.1804C18.4836 15.4691 18.5616 15.7401 18.691 15.8703C18.8987 16.0794 19.1143 15.9119 19.3215 15.7427C19.4605 15.6291 19.5929 15.5137 19.7323 15.5142C20.0796 15.5155 19.9582 16.1679 20.4284 16.5568C20.646 16.7368 20.947 16.7497 21.2074 16.7609C21.5098 16.7739 21.7576 16.7846 21.7566 17.0518C21.7537 17.818 23.1871 16.9171 23.1871 16.9171C24.6406 15.6955 24.9166 14.0447 23.1955 11.9971C21.4744 9.94955 18.1026 9.791 16.6491 11.0126C15.1957 12.2343 16.2083 13.901 16.2083 13.901C16.2484 14.0239 16.2699 14.1107 16.2874 14.1513C16.4631 14.5597 16.6273 14.8126 17.1849 14.8147C17.2303 14.8148 17.2716 14.8106 17.3091 14.8027ZM22.5966 16.1063Q23.3513 15.4487 23.3827 14.7236Q23.4218 13.8205 22.43 12.6406Q21.946 12.0647 21.2121 11.7062Q20.5141 11.3653 19.7075 11.2724Q18.9408 11.184 18.2657 11.3381Q17.6486 11.4789 17.2926 11.7782Q17.0089 12.0166 16.9157 12.2958Q16.8417 12.5177 16.8759 12.7904Q16.9039 13.0136 16.9975 13.2406Q17.0401 13.3441 17.063 13.3818L17.1231 13.4808L17.1373 13.5243Q17.5042 13.1559 18.0211 13.1578Q18.3161 13.1589 18.5741 13.3047Q18.7655 13.4129 18.9106 13.5892Q19.0676 13.78 19.1692 14.0569Q19.234 14.2334 19.3129 14.5847Q19.5206 14.5134 19.7361 14.5142Q20.0787 14.5155 20.3651 14.6908Q20.5991 14.8339 20.7573 15.0739Q20.873 15.2495 20.9827 15.573Q21.0244 15.6962 21.0463 15.7485Q21.1155 15.7561 21.2504 15.7619Q21.6997 15.7812 21.9496 15.8757Q22.2379 15.9848 22.4332 16.1978Q22.5144 16.1557 22.5966 16.1063Z">
</path>
</svg>
